<?xml version="1.0" standalone="no"?>
<!DOCTYPE svg PUBLIC "-//W3C//DTD SVG 1.1//EN" "http://www.w3.org/Graphics/SVG/1.1/DTD/svg11.dtd" >
<svg xmlns="http://www.w3.org/2000/svg">
<metadata></metadata>
<defs>
<font id="juergenregular" horiz-adv-x="980" >
<font-face units-per-em="2048" ascent="1638" descent="-410" />
<missing-glyph horiz-adv-x="530" />
<glyph horiz-adv-x="2048" />
<glyph horiz-adv-x="2048" />
<glyph unicode="&#xd;" horiz-adv-x="368" />
<glyph unicode=" "  horiz-adv-x="530" />
<glyph unicode="&#x09;" horiz-adv-x="530" />
<glyph unicode="&#xa0;" horiz-adv-x="530" />
<glyph unicode="!" horiz-adv-x="305" d="M49 -147l14 -113l74 -19l94 99l-10 67l29 207l-64 33l-123 -129zM49 741l33 -249l61 -48l68 48l47 112l16 547l-24 70l-64 4l-123 -144q29 -170 -14 -340z" />
<glyph unicode="&#x22;" horiz-adv-x="702" d="M59 401l31 -18l70 18q211 205 198 482l-49 71l-55 17l-74 -39l-47 -68l27 -188zM285 342l51 -18l90 77q209 246 197 557l-35 70l-82 21l-53 -37l-60 -92l2 -82l33 -25q12 -111 -16.5 -203t-106.5 -170z" />
<glyph unicode="#" horiz-adv-x="1374" d="M66 -100l34 -23l156 4l41 31l135 18l-24 -215l26 -34h58l71 96l23 123l30 30l35 -14l11 -63q-39 -90 -60.5 -179.5t-21.5 -187.5l32 -37h62l51 51q27 193 52.5 299.5t35.5 159.5q4 23 66.5 51.5t148.5 36.5l129 98l-24 74l-228 -10l-18 41l18 72l94 51l117 10 q156 37 164 178l-35 33l-221 -8l-25 16l-6 74l49 82l11 112l-29 39h-39l-31 -131l-73 -88l-37 -104l-70 -8v200l-72 4l-90 -98l-39 -152l-34 -36l-283 -19l-70 -47l-18 -57l45 -49h326l-25 -187l-35 -35l-100 -18l-219 -10l-88 -76zM674 236l59 88l37 -2v-39l-35 -74 l-45 -33z" />
<glyph unicode="$" horiz-adv-x="1275" d="M-66 -246l5 -33l69 -40h373l35 -50l-10 -127l57 -49l49 56q4 66 27.5 121t62.5 106q395 47 569 368v46l-73 84l-262 59l-58 39l58 203l32 32l93 -8l75 82l-6 96l-82 72v59q39 76 58.5 155t9.5 159l-23 37h-69q-197 -131 -136 -400l-161 -49q-225 -106 -293 -332 q-25 -223 178 -309l-23 -244l-49 -34l-295 2l-34 45l12 96l-60 8l-124 -151zM518 422v80l74 100l49 23l43 -19l6 -88l-63 -149l-58 -2zM641 -41l74 129l172 -49l8 -43l-236 -84z" />
<glyph unicode="%" horiz-adv-x="1507" d="M0 291l4 -29l37 -2l147 170q326 16 437 309l43 37l8 105l-58 73l-223 17q-225 -127 -250 -402q-66 -55 -103.5 -124.5t-41.5 -153.5zM246 -250l49 -33q162 43 168 242l88 104v31q104 94 189 197.5t157 222.5h23l102 137l43 25l43 82l82 78v45l-37 6l-178 -139l-21 -64 q-121 -90 -216 -197.5t-160 -236.5q-233 -207 -332 -500zM369 676l53 49l24 -2l11 -57l-56 -27zM934 -63l59 -109l99 -23l135 58q190 133 203 362l-39 37l-271 21l-145 -146zM1108 14v43l22 17h91l20 -41l-59 -49h-35z" />
<glyph unicode="&#x26;" horiz-adv-x="1486" d="M72 -442v-58l55 -69h152q96 66 198.5 108.5t212.5 71.5l64 65l57 5q109 125 254 36h154l147 121v49l-164 23l-72 49q-129 0 -241.5 35t-222.5 108l-31 50q96 61 172 140t135 171l64 26l110 136l64 34l186 205q139 55 121 215l-39 56l-74 4l-182 -43 q-92 -59 -192.5 -101.5t-215.5 -60.5l-157 -121q-184 -20 -287 -197l-80 -38q-180 -131 -164 -342l105 -142l121 -69l10 -50l-197 -270l-29 -106zM250 -336l121 191l84 75l274 -92l37 -57l-250 -100l-45 -48l-192 -2zM317 444l74 107q96 33 176 88t142 133q109 29 209 71 t196 101l123 27h43l6 -37q-125 -166 -266 -311.5t-305 -270.5l-29 -10l-45 -59l-129 -95l-164 146z" />
<glyph unicode="'" horiz-adv-x="428" d="M66 764l65 -184l-47 -172l53 -35q221 137 215 399l-73 141l-74 7l-105 -64z" />
<glyph unicode="(" horiz-adv-x="665" d="M78 72l43 -156q172 -203 454 -195l74 56l17 65l-17 35q-238 16 -319 244q-68 338 104 618l86 43l78 103l-23 84l-71 4l-180 -129l-82 -185l-43 -36l-6 -80q-78 -104 -108 -221t-7 -250z" />
<glyph unicode=")" horiz-adv-x="612" d="M0 -158l49 -30l162 147l74 135q209 172 196 438l33 86q-37 227 -190 398l-41 26l-146 -84l-24 -40q16 -70 48 -128.5t85 -105.5l16 -328q-94 -119 -115 -268l-143 -194z" />
<glyph unicode="*" d="M59 471l25 -29l195 -24l-70 -76l37 -92l59 -4l90 127l60 20q68 -197 241 -182l103 113l-86 155l176 4l-29 142l-133 41v24l88 74l57 119l-57 18l-201 -168h-24l-53 66l-109 57l-154 -74l62 -139l-164 -6l-109 -111z" />
<glyph unicode="+" horiz-adv-x="1028" d="M78 209l35 -21l227 13l16 -29l-14 -147l43 -74l49 -14l121 126l6 84l37 72q223 -4 336 164v43l-16 31q-78 14 -153 6t-151 -37l-4 270l-30 52l-43 2l-50 -25l-102 -119v-162l-176 -22l-125 -139z" />
<glyph unicode="," horiz-adv-x="440" d="M66 -324l43 -16l114 90q86 109 121 234t16 266l-61 90l-80 27l-59 -27l-88 -115l12 -49l55 -39l11 -49l-19 -39l8 -180l-33 -115l-34 -16z" />
<glyph unicode="-" horiz-adv-x="1085" d="M90 299l31 -31h147l654 99l86 92v71l-37 25l-137 -27l-39 27h-140l-407 -27l-158 -161v-68z" />
<glyph unicode="." horiz-adv-x="493" d="M78 131l102 -147l150 -25l73 55v49l-88 132l-24 96l-82 16l-131 -98v-78z" />
<glyph unicode="/" horiz-adv-x="897" d="M0 -299h49l123 104q41 104 99.5 194.5t136.5 172.5l22 78l84 84q70 129 163 244.5t204 218.5l16 55l-45 29l-193 -172l-8 -33l-137 -131l-68 -117l-77 -76l-45 -106l-78 -74l-66 -139q-68 -72 -111.5 -155t-68.5 -177z" />
<glyph unicode="0" horiz-adv-x="737" d="M51 430l58 -53l26 -330l88 -88l111 -18q176 49 219 211l27 8l110 291v147l-90 143l-160 47l-32 52l-78 6l-125 -121l-33 -98l-115 -135zM262 451l35 124l37 23h100l72 -55l43 -158l-84 -217l-74 -37l-106 107z" />
<glyph unicode="1" d="M205 442l41 -16l41 16q16 41 44.5 72t65.5 55l33 -8v-614l10 -33h54q129 57 129 186q0 29 -6.5 56.5t-16.5 62.5l31 51q-2 18 -2 37v37q0 57 8 113.5t29 111.5q-10 41 -13.5 80t-3.5 78t3 78t14 80l-74 35l-92 -76l-94 -164l-29 -4l-168 -176z" />
<glyph unicode="2" d="M37 -4l39 -49q160 25 321 24q104 0 206 -11t200 -34l117 74v98l-72 58h-373l-10 41l123 96q59 55 91 116.5t32 114.5q0 68 -35 131l-96 60l-72 2l-156 -33l-90 -104l10 -52h131l93 -61q6 -18 8 -35.5t2 -34.5q0 -131 -174 -186l-232 -96l-59 -56z" />
<glyph unicode="3" d="M74 8q0 -20 2 -31l131 -88l250 -20l131 72l71 8q115 33 182.5 118t94.5 214q-41 92 -105.5 143t-156.5 51h-8l-7 31l58 106v74l-37 59l-125 25h-127q-63 -33 -104 -81t-68 -114l55 -12l58 29l155 -17l15 -43q-57 -23 -104.5 -64.5t-78.5 -98.5v-45q176 -18 344 -107 l39 -45v-45l-200 -88q-41 -10 -74 -10q-147 0 -248 151h-49q-45 -31 -69.5 -74t-24.5 -98z" />
<glyph unicode="4" d="M88 115l25 -25h82q96 57 184 57q27 0 53.5 -3t50.5 -13l19 -41l-19 -192l23 -50l-4 -116l35 -47h49l53 73l51 426l141 54l70 79v66l-37 39l-141 -29l-49 8l-39 439l-66 22l-147 -133l-82 -156l-25 -10q-121 -164 -221 -354zM266 305v37l82 80l23 82l100 112h31l16 -28 v-221l-63 -62l-156 -26z" />
<glyph unicode="5" d="M27 23l34 -50l60 -8q66 -47 134.5 -71.5t145.5 -24.5q25 0 49.5 2t49.5 6l192 74q240 113 240 346q0 31 -10.5 59.5t-26.5 52t-35.5 41t-38.5 27.5h-12l-107 23q-53 0 -106 9t-100 28v12q0 33 26.5 67.5t40.5 59.5q51 6 109.5 10t101.5 25q39 4 53.5 20.5t30.5 56.5 q45 20 77 48t32 82v4l-43 20q-31 -18 -65 -33.5t-71 -15.5h-16t-12 2q-23 -20 -49.5 -26.5t-55.5 -6.5h-92q-182 -131 -241 -379q-4 -16 -5 -28q0 -39 31 -62.5t62 -50.5q18 2 33.5 3t31.5 1q80 0 147.5 -32.5t116.5 -100.5v-68l-141 -82q-33 -8 -61.5 -10t-57.5 -2 q-197 0 -340 150l-106 -74z" />
<glyph unicode="6" d="M147 14v-41l64 -22l84 51l59 -37l113 -14l106 22q225 96 226 330q0 45 -8 86l-50 66q-14 2 -28.5 3t-28.5 1q-170 0 -276 -144l-50 -6l31 168q35 70 70 149t55 128l39 71q8 31 25.5 57.5t40 49t47 44t47.5 42.5l127 18l55 92l-49 74l-82 10l-88 -45l-101 -106 q-86 -76 -157.5 -186.5t-125.5 -234.5t-86 -253t-34 -242l16 -59zM438 172v33l105 74l61 -5l33 -69l-33 -68h-104z" />
<glyph unicode="7" d="M106 754l46 -39q106 18 217 18q109 0 219 -18q-35 -49 -49.5 -103.5t-14.5 -109.5v-25l-73 -145l-172 -58l-111 -104l18 -43h168l19 -14l-29 -66v-129l-65 -104v-211l114 -74h86l90 80v61l-92 60q-4 29 -6 55.5t-2 54.5q0 143 45 273l209 161l4 54l-74 43l-14 59l98 139 l17 90q113 113 141 259l-35 26l-506 -24l-61 24l-168 -104z" />
<glyph unicode="8" d="M88 137l74 -123q37 -14 84 -14l137 10q47 -14 96 -34.5t96 -20.5l27 6q102 10 165.5 62.5t84.5 158.5q-16 16 -38.5 29.5t-43 29t-35 34t-14.5 44.5q0 8 1 13.5t3 15.5q-90 84 -123 195l57 116q25 10 38.5 29t21.5 41.5t13 47t16 46.5q29 18 45 46t16 57q0 31 -17.5 56.5 t-52.5 41.5l-123 8l-159 -37q-29 -49 -73 -79.5t-93 -53.5q-23 -20 -23 -51q0 -29 14.5 -62.5t33 -72.5t37 -79t26.5 -81q-41 -25 -81 -59.5t-77 -74.5t-69.5 -82t-57.5 -81zM279 250l122 133h9q16 0 22 -10.5t9 -25.5t6.5 -31.5t9.5 -28.5q4 -12 14 -25.5t20.5 -27 t18.5 -26.5t8 -24q0 -12 -12 -22h-78q-53 0 -98 13t-49 69zM469 803l61 78q16 4 29.5 6t26.5 2q51 0 51 -51q0 -23 -11.5 -50.5t-28.5 -52t-38.5 -41t-40.5 -16.5q-23 0 -36 28.5t-13 96.5z" />
<glyph unicode="9" d="M147 406l41 -113l43 -31l117 19l172 96q12 -53 17.5 -106.5t5.5 -106.5q0 -281 -160 -535q-147 -162 -201 -391l-30 -26v-35l45 -21l127 127l43 117q59 63 96 135t51 156l64 88l10 86l114 201l31 188q57 94 58 186q0 76 -41 152l73 133l15 158l-88 53l-213 25 q-231 -59 -326 -275v-88l-47 -49zM328 459v55l39 154l63 57l86 -57l39 -131l-188 -107z" />
<glyph unicode=":" horiz-adv-x="376" d="M47 -90l49 -82h56l120 59l35 152l-35 49l-49 18l-164 -122zM78 356l57 -73l58 -15l90 56l26 106l-61 82l-55 2l-115 -84v-74z" />
<glyph unicode=";" horiz-adv-x="475" d="M27 -569l63 -19l148 146q88 86 134 189t56 220l-49 107l-84 39l-148 -138q37 -92 37 -176q0 -172 -151 -313zM66 444l98 -137h43q145 25 145 137v13l-30 121l-84 40l-138 -100z" />
<glyph unicode="&#x3c;" horiz-adv-x="1097" d="M59 16v-51l74 -55q199 47 394.5 42t385.5 -65l107 56v61l-51 53q-303 74 -611 6l-36 25l36 57l338 197l45 53l43 6l162 136l39 41v40l-74 7q-190 -203 -444 -301l-66 -64q-102 -37 -189 -95.5t-153 -148.5z" />
<glyph unicode="=" horiz-adv-x="1157" d="M72 305l55 -37l238 29l395 -35q57 2 113.5 6t101.5 16.5t74.5 32t35.5 52.5l-38 32l-146 17l-223 -17q-150 45 -318 45h-63q-33 0 -64 -4l-120 -41l-37 -34zM156 106l37 -22q129 18 251 18q109 0 213.5 -13t210.5 -40l74 39l8 59l-307 58l-336 18l-47 -4l-104 -74v-39z " />
<glyph unicode="&#x3e;" horiz-adv-x="966" d="M0 -180l63 -17q254 240 596 254q174 49 228 222q-76 180 -301 217q-88 139 -244 143l-123 -102l-12 -56q137 -172 348 -256l8 -37q-78 -10 -148.5 -33.5t-135.5 -66.5l-11 -25q-78 -35 -141.5 -82t-122.5 -104z" />
<glyph unicode="?" horiz-adv-x="684" d="M90 776l43 -37l129 19l23 -33q-35 -211 -160 -385l-10 -145l49 -50l129 -8h26q35 -10 58 -10q68 0 127 48t100 108v73l-31 17l-221 -6l33 161l107 168l16 185l-76 63l-135 10l-141 -67l-66 -66v-45zM238 -324l43 -77l71 -13l80 41l60 142l-33 69l-62 39l-149 -123z" />
<glyph unicode="@" horiz-adv-x="1323" d="M78 -12l18 -45l-12 -90q18 -256 219 -256h19q10 0 20 2q281 29 514 178q111 10 191.5 58t140.5 140l117 72l18 41l-8 18l-66 -4l-6 -28l-137 -74l-57 -2l-74 -68l-189 -43q-131 -100 -278 -100q-102 0 -203 51l-69 162l36 283l162 356l127 119h197l69 -84l23 -72l-35 -76 l-113 6q-219 -139 -219 -376q0 -23 2 -42.5t7 -41.5q41 -33 88 -33q61 0 122 55l27 -96l62 -23l83 39l89 88l-15 117l99 221l-27 314q-29 102 -94.5 151t-188.5 49h-24q-59 0 -129 -33.5t-136.5 -91t-125 -134.5t-97.5 -163l-24 -102l-21 -2q-53 -92 -77.5 -193.5 t-24.5 -211.5v-35zM680 299l37 72l31 -19v-53l-62 -49z" />
<glyph unicode="A" horiz-adv-x="1914" d="M-2 451l2 -37l49 -19q186 309 514 310q119 0 248 -39l78 -60l20 -41l-8 -8q-43 -47 -80 -97t-55 -112l-160 -166q-2 -39 -24.5 -63.5t-53.5 -44.5q-4 -12 -9 -27.5t-5 -30.5q0 -16 14 -28q45 35 87 71.5t59 98.5q182 129 268 325l51 49l64 11l250 -148l53 -6l2 -22 q233 -84 233 -297q0 -59 -18 -127l12 -4q25 -37 60 -37q29 0 60.5 19.5t62.5 29.5q20 49 47.5 97t27.5 104v12q-49 98 -75.5 196.5t-26.5 202.5q0 78 16.5 159t46.5 161q10 37 15.5 74.5t5.5 72.5q0 170 -129 299l-62 10l-174 -149l-18 -55l-45 -17q-53 -86 -121 -162.5 t-154 -140.5l-206 35l-82 24l-97 -6q-18 0 -36.5 5.5t-30.5 25.5q-264 -4 -486 -160q-190 -98 -190 -288zM1206 762v22l123 134l23 51l194 176q4 0 8.5 1t6.5 1q29 0 40 -27.5t11 -58.5v-17q20 -10 29.5 -30.5t9.5 -42.5q0 -33 -13 -53q-12 -45 -19 -89.5t-7 -91.5 q0 -35 5 -67.5t9 -67.5l-16 -37l-51 -4q-98 78 -230 92z" />
<glyph unicode="B" horiz-adv-x="1343" d="M-12 281q0 -18 4 -36t8 -38l172 -107l47 -10q55 -66 122 -95.5t151 -29.5q37 0 73 6l324 25q322 111 454 412l5 34q0 115 -65.5 182.5t-190.5 67.5q-47 0 -95 -8l37 27q80 51 118 123.5t38 156.5q0 31 -6 63.5t-17 65.5l-73 60l-226 24q-12 2 -24 2h-21 q-113 0 -200.5 -58t-151.5 -163v-6q0 -51 34 -78t73 -49q8 -2 22 -2q33 0 42 27.5t9 56.5l-2 39q35 29 43 44t21 15q12 0 51 -16q10 -8 22 -10q-6 -104 -33.5 -202.5t-64.5 -197.5l-12 -12q-31 -29 -60.5 -65.5t-29.5 -71.5q0 -39 49 -68q14 0 14 -20t-7 -51t-7 -58 q0 -20 8 -35.5t31 -15.5q4 0 15 2t22 8q31 12 46 36t24.5 51.5t16.5 56t17 55.5q57 20 98 20q53 0 102.5 -13t102.5 -24q20 -41 21 -67q0 -37 -23.5 -62.5t-59.5 -44t-76 -34t-71 -31.5q-49 -10 -99 -14.5t-97 -4.5q-147 0 -280.5 51.5t-256.5 161.5l-39 70l-43 4 q-106 -43 -106 -149zM864 705l21 71l33 221l14 11q8 0 12 2t10 2q25 0 42.5 -13.5t23.5 -35.5q2 -6 2 -17v-12q0 -20 -16.5 -55t-40 -71t-51 -65.5t-50.5 -37.5z" />
<glyph unicode="C" horiz-adv-x="1056" d="M2 250q0 -25 7 -51.5t24 -51.5q194 -200 484 -200h3h29l215 49q127 29 203.5 100.5t111.5 188.5v6q0 10 -15 12t-28 2q-4 0 -8 -6q-197 -162 -399 -162q-166 0 -344 111q-41 35 -58.5 69.5t-17.5 75.5t13.5 84t30.5 88t33.5 89t20.5 87q170 252 457 252q96 0 205 -24 q27 14 43 26.5t24 28.5t12.5 37.5t10.5 54.5l2 23l-68 28q-27 6 -54.5 8.5t-53.5 2.5q-100 0 -195.5 -22.5t-187.5 -59.5q-82 -66 -157 -136.5t-139.5 -148.5t-116.5 -166t-85 -188v-176z" />
<glyph unicode="D" horiz-adv-x="1435" d="M12 135q217 -221 531 -221h43q23 0 45 2q268 47 465.5 193.5t320.5 402.5q4 6 9.5 29.5t10.5 56.5t8 70t3 71q0 29 -2 51.5t-6 34.5q-133 361 -551 394q-41 10 -83 14t-83 4q-86 0 -167 -11.5t-167 -21.5q-35 -29 -57.5 -62.5t-22.5 -74.5q0 -16 6 -37q16 -8 29.5 -10 t28.5 -2q29 0 54.5 8t53.5 18q106 23 195 23q301 0 514 -252l37 -102l59 -45l2 -17q10 -47 10 -82q0 -57 -20.5 -113.5t-54 -106.5t-78.5 -93t-96 -74l-211 -98l-31 2q55 45 64.5 102.5t9.5 118.5v8q0 16 -2 33t-7 35l-4 25l-4 67q14 41 30.5 86t16.5 92v21q14 12 17.5 26.5 t3.5 32.5l-8 119q0 6 -13.5 11t-29.5 5t-25 -4q-10 -4 -16 -5t-13 -3q-94 -113 -94 -250q0 -14 1 -30.5t3 -34.5v-9q2 -14 9.5 -31.5t11.5 -37.5q-14 -14 -18.5 -28.5t-4.5 -33.5l4 -65q-10 -23 -14 -44.5t-4 -45.5q0 -16 1 -29.5t3 -28.5q8 -29 16.5 -58.5t16.5 -57.5 l-25 -11q-18 -2 -36.5 -3t-37.5 -1q-74 0 -149.5 21.5t-145 57.5t-129 82t-100.5 97q-8 4 -22 4q-33 0 -50.5 -19t-27.5 -47t-14.5 -59.5t-8.5 -58.5z" />
<glyph unicode="E" horiz-adv-x="1550" d="M0 242q29 -18 49 -19l23 -2q10 0 15 5t15 28l115 20q33 0 51 -32l11 -207q80 -61 184 -85t213 -24h90q4 2 10 2h15q18 -2 34.5 -3t32.5 -1q383 0 658 283l6 84q-18 8 -45 8q-18 0 -36 -9t-34 -23.5t-32.5 -29t-33.5 -26.5q-98 -35 -231 -50.5t-260 -15.5 q-70 0 -130.5 4.5t-105.5 12.5t-71.5 19.5t-26.5 27.5l-33 74l33 39q137 45 276.5 65.5t280.5 20.5h31q23 20 59.5 33.5t72.5 26.5t62.5 32.5t26.5 50.5q0 12 -2 22q-176 -2 -304 -11t-217 -19.5t-143.5 -18.5t-80.5 -8q-20 0 -27.5 4t-7.5 21q0 16 8 39v51q154 354 575 354 q47 0 95.5 -4t101.5 -12h426q14 14 32.5 25.5t35 23.5t27.5 27.5t11 33.5q0 14 -2 25l-84 59q-61 -2 -140 -5t-161 -8t-160.5 -13.5t-142 -18.5t-103.5 -21.5t-44 -25.5q-23 2 -44.5 4t-41.5 2q-137 0 -252 -50t-223 -142q-4 -133 -90 -223l2 -46q0 -45 -10.5 -84.5 t-39.5 -74.5q-49 -6 -100 -21.5t-96 -41t-78 -63.5t-45 -89z" />
<glyph unicode="F" horiz-adv-x="1036" d="M-74 356l4 -37l58 -38l96 -11q-4 -35 -4 -73v-26v-17q0 -43 -8 -84q-20 -29 -31 -45q4 -16 8 -29.5t4 -30.5l53 -14l101 123l-6 57q16 39 25.5 81t23.5 83q145 53 293.5 78.5t302.5 36.5l141 102l-14 51l-76 -37q-47 4 -92 14.5t-92 20.5q-29 -12 -60.5 -24.5 t-66.5 -22.5q-10 -2 -37 -2q-35 0 -86 3t-98 3l-46 -2l-28 102q6 55 20.5 108.5t18.5 109.5q55 12 119.5 28.5t126 31.5t113.5 26.5t83 11.5q20 0 63.5 -8t91.5 -17.5t93 -16.5t72 -7q16 0 18 2l6 -2q8 0 21.5 18.5t15.5 28.5q2 31 7 64.5t5 64.5l-57 43h-311l-39 -27 q-18 2 -35 2h-33h-67h-29q-12 0 -29 2q-25 -16 -48 -23t-46 -28q-20 2 -37 2h-33q-78 0 -152.5 -12t-146.5 -41q-10 -14 -16 -24.5t-16 -22.5v-45l77 -41q8 -8 9.5 -15.5t5.5 -17.5q-10 -27 -15.5 -53.5t-15.5 -50.5q4 -16 4 -33v-33q0 -63 -22 -127q-29 -12 -58.5 -22.5 t-58.5 -26.5q-18 -29 -38.5 -52.5t-31.5 -58.5z" />
<glyph unicode="G" horiz-adv-x="931" d="M0 127l41 -127l90 -49h29q129 0 233.5 44t196.5 132l45 -18l-19 -209q-63 -100 -63 -203q0 -104 63 -211l74 -37l58 55l-11 301q113 252 115 525l-31 24l-55 -6q-106 -88 -224 -149.5t-251 -96.5l-80 19l-16 31q-14 51 -15 108q0 168 135 283q39 102 100.5 189t157.5 157 l117 43l72 -43l22 -90l-22 -133l39 -4l108 147l23 152l-60 100l-149 24l-137 -57l-340 -340l-74 -108l-27 -84l-45 -25l-37 -117l-38 -47z" />
<glyph unicode="H" horiz-adv-x="1413" d="M-8 373q0 -51 78 -51q37 37 85 48t101 11q-12 -25 -20.5 -55.5t-13.5 -62.5t-8 -62.5t-7 -53.5l-2 -20q0 -23 8 -47.5t18 -46.5l5 -10h51q49 33 64.5 86t21.5 110t16 112.5t49 96.5q72 2 141.5 23.5t129.5 64.5h172q16 0 22 -15.5t6 -35.5q0 -31 -8 -49 q-37 -137 -55.5 -277.5t-20.5 -281.5q25 -14 43 -15q33 0 63 32t60 50q-4 39 -6 78t-2 80q0 106 17.5 211.5t54.5 210.5l342 20q25 20 33 47t8 56v22q-78 25 -140.5 30t-107.5 7t-69.5 9t-24.5 32q0 18 10 39q53 113 53 240q0 35 -6 75l-37 58l-74 4l-84 -76 q8 -55 16.5 -110.5t8.5 -110.5q0 -47 -9 -92t-38 -88q-119 0 -231.5 -19.5t-227.5 -19.5l68 417q-4 29 -26.5 35t-49.5 11q-25 -12 -38 -29t-22.5 -34t-18.5 -34.5t-25 -31.5q-16 -41 -23.5 -89.5t-11.5 -99.5t-9.5 -100t-15.5 -94q-23 -23 -51.5 -35.5t-59 -20.5t-62.5 -14 t-60 -19l-70 -73q-10 -25 -10 -43z" />
<glyph unicode="I" horiz-adv-x="741" d="M23 106q0 -8 2 -18l2 -27l82 -120q49 -23 103 -32t107 -9q27 0 50.5 1t48.5 9h28q53 0 99.5 13.5t91.5 35.5q23 35 40 73t34 74q-6 47 -14.5 93.5t-18.5 93.5q-20 57 -31.5 114.5t-15.5 118.5q-2 47 -5 91.5t-3 87.5v34q0 20 2 39q29 61 41 131t12 138v34t-2 35 q-10 18 -22.5 37t-22.5 39q-18 2 -51 10t-56 15l-8 2q-4 -4 -9 -10.5t-7 -12.5l-133 12q-6 -10 -10.5 -18t-12.5 -14l-12 -31l-13 -47q10 -10 16.5 -22.5t12.5 -26.5q35 -4 68 -10.5t63 -16.5l47 -53q-10 -41 -16 -84t-18 -86q3 -33 3 -66v-17v-28q0 -27 1 -53 q-10 -53 -17.5 -105.5t-7.5 -101.5q0 -20 3 -41.5t5 -42.5q6 -66 17.5 -118t33.5 -113l-36 -23q-29 -10 -56.5 -18.5t-56.5 -8.5h-12q-66 0 -107 21.5t-92 60.5l-20 148l-37 6q-45 -29 -67.5 -75t-22.5 -99v-19z" />
<glyph unicode="J" horiz-adv-x="778" d="M-113 57l15 -96l35 -55q33 -23 64.5 -53.5t62 -62.5t62.5 -62.5t67 -51.5q70 -37 139 -72.5t139 -70.5l119 -16q37 31 55.5 73.5t18.5 90.5q0 29 -7.5 59.5t-17.5 54.5q37 106 37 219q0 70 -11.5 136.5t-33.5 132.5q31 106 31 217q0 90 -23 180q10 12 18.5 23.5 t16.5 23.5v215q2 14 7 29.5t11 32.5q-10 23 -18 46t-15 46q-23 23 -36 49.5t-33 46.5l-146 20l-270 -45q-8 -16 -25.5 -31.5t-36 -29.5t-34 -29.5t-21.5 -32.5q6 -16 15.5 -31.5t13.5 -33.5q123 57 272 57q18 0 38 -1t42 -3h15l41 -28q10 -43 16 -86.5t10 -86.5l-24 -59 l24 -74q-16 -72 -24.5 -146.5t-8.5 -150.5q0 -45 3.5 -90t11.5 -90l-21 -10q-2 -10 -3 -22.5t-1 -24.5q12 -55 20.5 -111.5t8.5 -113.5q0 -53 -4 -92.5t-19 -90.5l-41 15l-90 71l-67 11q-51 25 -88 56.5t-67 69t-55.5 82.5t-54.5 95l-43 -17q-23 -20 -45 -39.5t-45 -42.5z " />
<glyph unicode="K" horiz-adv-x="1208" d="M45 440q0 -33 10.5 -48t25.5 -23.5t35.5 -12.5t43.5 -16l-29 -389q23 -37 62 -37l14 2q55 41 64.5 96.5t9.5 114.5v39q0 20 2 41q8 14 15 35.5t14 41t17.5 33t26.5 13.5q10 0 19.5 -2t19.5 -13q117 -180 273.5 -264t363.5 -84q174 29 176 191q-6 29 -39 28 q-14 0 -32.5 -5t-34.5 -5h-10q-10 4 -22.5 5t-25.5 1l-106 -6q-23 0 -40 11.5t-28 43.5q-55 4 -104 33t-93 69t-83 85t-74 82l72 94q47 31 90 66.5t70 89.5q78 49 139 112.5t106 141.5l35 4q4 49 38 78.5t67 60.5l36 117l-61 22l-43 -29q-16 -66 -47 -122t-84 -103 l-479 -452h-13q-18 0 -27 12t-16.5 29.5t-13.5 38t-16 36.5q10 51 13 101.5t3 101.5q0 53 -3 102.5t-13 102.5l-58 12q-29 -8 -49 -24.5t-35.5 -38t-29 -46t-25.5 -49.5l14 -284q-18 -41 -42.5 -54.5t-46 -27.5t-37 -45t-15.5 -107z" />
<glyph unicode="L" horiz-adv-x="851" d="M27 72q0 -33 11 -54.5t46 -31.5l305 -33q166 86 350 86h35q18 0 37 -4q20 8 44 22.5t43.5 31.5t31.5 37.5t12 41.5q0 33 -33 57l-428 -18q-76 -45 -139 -45q-72 0 -125 45q33 147 49.5 291.5t16.5 296.5q0 94 -6.5 190.5t-22.5 194.5l-59 16q-86 -55 -111 -152 q14 -94 21.5 -187t7.5 -189q0 -104 -9.5 -210t-29.5 -210l-35 -47z" />
<glyph unicode="M" horiz-adv-x="1230" d="M-12 25l69 -21q45 39 72 88t42 104.5t22.5 114t13.5 115.5l4 49l35 31l73 -31q16 -4 29 -4h25q268 0 438 240q6 0 16.5 9t22.5 18.5t23.5 17.5t21.5 8t14 -12l2 -4q10 -23 18.5 -56t8.5 -51l-8 -233v-29q0 -12 2 -25q-10 -43 -12 -82t-2 -79q0 -82 14 -163t43 -161 q12 -23 30.5 -28t38.5 -5l29 2q8 18 21.5 33.5t26 32t21.5 34t9 37.5l-4 21q-41 84 -58.5 175t-17.5 183v37q0 18 2 37q27 106 42 213t15 215q0 66 -6 129.5t-16 124.5q-68 0 -114 -36t-83 -88t-70.5 -108.5t-76.5 -95.5q-102 -86 -191 -86q-47 0 -94 21.5t-90 64.5 q-55 184 -55 373v49t2 47l-66 17q-123 -72 -123 -209q0 -23 2.5 -45.5t10.5 -44.5l-51 -117v-266q-102 -268 -121 -561z" />
<glyph unicode="N" horiz-adv-x="1265" d="M-2 2l2 -27q10 -27 28.5 -37t41.5 -10l24 2q41 35 78 68t37 80q0 16 -2 28.5t-12 28.5q39 66 56 139.5t28 151.5q10 12 16 16t16 4q12 0 24.5 -5t29.5 -15l16 -37q23 -45 46.5 -85t53 -75.5t68.5 -64.5t94 -51q41 -10 79 -17.5t73 -7.5q197 0 325 182q57 127 87 258 t30 267q0 86 -12 178l-35 43l-25 254q-10 4 -16 6t-16 2q-45 0 -74 -40t-39 -83l16 -405l-16 -41q6 -25 7 -51.5t1 -51.5q0 -66 -12 -132t-41 -132l-144 -20q-96 18 -168.5 91.5t-126 178t-90 224.5t-57.5 231q-6 2 -14 2h-17q-37 0 -66.5 -19.5t-54 -47.5t-47 -59.5 t-45.5 -54.5v-409q-74 -113 -73 -258v-19l-11 -14q-27 -41 -45 -80t-18 -86z" />
<glyph unicode="O" horiz-adv-x="1118" d="M-4 362q0 -31 4 -63l33 -205q43 -80 109.5 -118.5t152.5 -38.5q27 0 55.5 2t57.5 12l235 98q225 137 341 329.5t132 442.5l-43 49v138l-82 108q-98 25 -194 25q-57 0 -112.5 -8.5t-115.5 -28.5l-55 49l-84 10l-123 -59q-158 -135 -234.5 -306t-76.5 -376v-60zM225 283 v319l99 295l84 45h161q287 -33 287 -280q0 -23 -3 -45.5t-7 -47.5l-49 -196l-138 -154l-276 -31z" />
<glyph unicode="P" horiz-adv-x="960" d="M12 1053q0 -25 16.5 -42.5t57.5 -17.5q76 29 150.5 42.5t152.5 13.5q47 0 95 -3.5t96 -13.5q279 -2 284 -237l-26 -33q-135 -168 -308 -168q-23 0 -46 4l-46 8l51 142v120q-14 12 -27 16.5t-30 4.5q-33 0 -60.5 -24.5t-56.5 -53.5l-16 -16l-4 -31q-16 -86 -39 -164 t-84 -143l21 -224l-21 -40v-213l10 -13q26 -28 49 -28h2q18 0 36 10t33 25.5t29.5 33t26.5 31.5q0 57 -9 130t-9 142q0 35 3 65t13 56h217q199 51 321 191.5t163 330.5l-41 125q-178 154 -412 154q-55 0 -112 -12l-9 -2h-26l-367 -50l-4 -4q-31 -16 -52.5 -49t-21.5 -63z " />
<glyph unicode="Q" horiz-adv-x="958" d="M49 291q0 -29 2 -54.5t6 -54.5v-10q0 -76 29 -136.5t94 -105.5q37 -6 70 -6q92 0 174 41t156 94l211 -211q8 -8 24 -12t33.5 -10t34 -14.5t26.5 -22.5q14 0 33 8t36 21.5t28.5 32t11.5 36.5q0 12 -2 19q-29 8 -38 30.5t-9 47.5v12q-72 43 -121 101.5t-100 119.5v16 q2 29 8 62t35 47l-5 27q0 37 15.5 68.5t36.5 64.5q45 127 45 252q0 197 -111 381l-63 49l-66 8l-63 -8q-133 -66 -222.5 -169.5t-134.5 -250.5q-174 -203 -174 -473zM186 262q0 25 5.5 52.5t15.5 56.5l55 235q117 134 164 318l57 37l60 -3q29 -45 45 -95t18 -105h60 q31 51 51 51q23 0 32 -44t9 -89l-4 -41l-66 -293l-39 10q-39 164 -205 213q-96 -51 -96 -149v-15q33 -23 58.5 -53.5t46 -64t39 -68.5t36.5 -68q-43 -47 -76.5 -59t-66.5 -12l-57 2h-15q-8 0 -16 -2q-111 68 -111 186z" />
<glyph unicode="R" horiz-adv-x="1155" d="M0 997q16 -63 55 -80.5t90 -17.5l35 -2q4 0 11.5 1t17.5 3q29 16 35 49t18 62q111 37 213 37q215 0 385 -164l23 -94l-6 -7q-29 -43 -68 -71.5t-83 -50t-90 -41t-87 -43.5l-90 -11v342q-10 4 -21 4h-18q-41 0 -75 -23.5t-64 -51.5l-21 -17l-24 -350l-5 -4 q-20 -25 -40.5 -53.5t-20.5 -55.5q0 -16 10 -31.5t39 -27.5l-10 -266q12 -41 37.5 -60.5t58.5 -19.5q39 0 76 27.5t47 76.5q-8 25 -11 51.5t-3 53.5q0 29 5 59.5t21 59.5q68 -25 139.5 -63t139 -84t127 -98t104.5 -108q47 -8 92 -12t93 -4q16 43 16 86q0 45 -20.5 81 t-73.5 42q-35 51 -91.5 99t-124 90t-137 76t-131.5 56l66 39q51 16 96 47t87 67t84 74t87 68l43 148l25 16l-25 135q-39 74 -96 114t-139 40l-35 -6l-55 35h-254l-72 6q-227 0 -381 -183z" />
<glyph unicode="S" horiz-adv-x="1361" d="M12 109q55 -74 135 -103q79 -29 169 -36q78 -6 160 -6h23h14q85 0 161 -11q63 6 120.5 26.5t110.5 49t105.5 63.5t105.5 66q244 145 244 393q-16 33 -41 52.5t-54.5 31.5t-61.5 20.5t-62 18.5q0 -6 -15 -6l-92 8l-256 51q-33 33 -73.5 41t-86.5 8h-114h-25q-12 0 -24 2 q-10 10 -23.5 18.5t-27 16.5t-22.5 17.5t-9 25.5v8l69 78q47 23 97.5 33t97.5 10q35 0 70.5 -7t68.5 -17l154 -103q20 -16 34.5 -26.5t26.5 -10.5q16 0 28.5 20.5t22.5 67.5q6 31 7 60q0 57 -31 101t-78 74t-104.5 45t-112.5 15q-18 0 -59 -12t-86.5 -30.5t-88.5 -37 t-63 -30.5q-125 -68 -187.5 -161t-62.5 -220v-27q0 -12 4 -27q12 -23 29.5 -37t39 -24t44 -18.5t43.5 -16.5q45 8 89 10t87 2q160 0 308.5 -43t283.5 -131q4 -12 4 -22v-21q0 -35 -19.5 -57t-47 -40.5t-59.5 -35t-56 -37.5l-353 -43h-36q-217 0 -373 154h-62 q-29 -12 -45 -32.5t-24 -47t-12.5 -55.5t-8.5 -55z" />
<glyph unicode="T" horiz-adv-x="1019" d="M-4 1098q0 -14 8 -31q72 -80 184 -80q16 0 34 1t38 5h516q29 -6 59.5 -7t61.5 -1h207q82 6 160.5 17.5t156.5 39.5q14 16 23.5 32t9.5 32q0 29 -41 49l-180 25q-141 -35 -280.5 -42.5t-274.5 -7.5q-154 0 -301 11.5t-301 58.5l-10 -8q-23 -18 -46.5 -42t-23.5 -52z M514 -53q18 -41 51 -41q25 0 48.5 17.5t39.5 37.5q23 51 29 104.5t6 108.5v145l4 70q41 113 57.5 227.5t16.5 233.5v41q0 20 -2 43l-31 35h-67q-61 -47 -85 -110.5t-31 -135.5t-7 -145q0 -74 -11 -140q12 -53 17.5 -105t5.5 -102q0 -139 -41 -284z" />
<glyph unicode="U" horiz-adv-x="1267" d="M-4 188q0 -20 1 -39.5t3 -39.5v-23q18 -61 66.5 -91t107.5 -30h21q10 0 22 2q88 45 169 110.5t154.5 142.5t140.5 160t126 163l51 71v-22q0 -14 -3 -31.5t-3 -36.5v-12q4 -72 20.5 -145.5t42 -140t59.5 -123t73 -93.5l26 -2q84 0 126 24.5t42 110.5v21 q-43 51 -70.5 107.5t-44 118t-26.5 125t-19 128.5q10 41 17.5 80t7.5 78q0 41 -7 81t-18 79q-29 27 -53 26q-37 0 -70.5 -25.5t-68.5 -48.5q-102 -223 -249.5 -409.5t-340.5 -339.5l-76 -4l-47 47q-4 53 -6 107.5t-2 107.5q0 319 80 643l-25 65q-10 4 -16 5h-12 q-27 0 -47.5 -16.5t-41.5 -37.5l-4 -2q8 -33 10.5 -62.5t2.5 -60.5q0 -127 -43 -243l4 -109q-39 -100 -59.5 -202.5t-20.5 -213.5z" />
<glyph unicode="V" horiz-adv-x="1077" d="M0 899q66 -82 104.5 -176t57.5 -197l35 -75v-7l24 -65q0 -123 32 -233.5t103 -215.5q20 -4 40 -9t42 -5q88 0 162 80q6 14 11 31.5t13.5 34t19.5 28.5t32 19q49 233 167 420.5t304 334.5q280 53 391 336l-59 33q-303 -117 -531 -361v-34q-55 -41 -116.5 -94.5t-120 -114 t-108.5 -123t-83 -121.5q-18 -33 -28 -33q-8 0 -13.5 12.5t-9.5 28.5l-2 13q-29 82 -53.5 172t-58 177t-86 161.5t-134.5 125.5q-37 -8 -60.5 -17t-39 -24.5t-23.5 -40t-12 -61.5z" />
<glyph unicode="W" horiz-adv-x="1257" d="M0 713l4 -4q35 -23 44 -53.5t9 -65.5v-47q41 -59 51.5 -126t10.5 -134v-78v-43q0 -18 2 -39q41 -35 43 -80t8 -92q20 -39 51 -39q45 0 72 49h29q18 0 34.5 4t30.5 21l156 336q23 -23 48 -46.5t25 -56.5q0 -14 -2 -24l93 -228q10 -2 19 -4t20 -2q27 0 51 11.5t45.5 27.5 t43 36.5t44.5 37.5l342 895q137 131 196 305q-30 24 -53 24h-2q-27 0 -47 -21.5t-38.5 -50l-37 -57t-41.5 -43.5q0 -29 -14 -47t-37 -35q-2 -27 -13 -50t-26.5 -44.5l-31 -43t-27.5 -46.5q-6 -49 -24.5 -93t-57.5 -79q-14 -39 -22.5 -79t-19.5 -80t-27.5 -77.5t-45.5 -68.5 q-8 -10 -11 -28.5t-6 -35t-11.5 -28.5t-24.5 -12h-8q-29 39 -45.5 93t-37 105t-51 90t-87.5 49q-70 -47 -120 -106t-81 -137q-4 -43 -18.5 -84t-36.5 -80h-33l-35 59q-6 133 -32.5 262t-71.5 254l-58 60q-4 2 -10 2h-8q-49 0 -80 -44t-39 -89z" />
<glyph unicode="X" horiz-adv-x="1126" d="M20 -76q0 -16 11.5 -26.5t44.5 -10.5l141 133q39 96 106.5 185.5t145.5 154.5h12q53 0 84 -32.5t51 -79.5q45 -18 84 -42t58 -71q121 -12 176 -119l74 -12q31 0 58.5 7t51.5 30q10 14 12.5 25.5t2.5 21.5q0 37 -29 74t-45 74q-250 127 -375 354l49 112q172 147 260 355 l11 78l-70 28q-23 -29 -54.5 -52.5t-59 -49t-47 -55t-19.5 -68.5v-16t4 -17l-178 -217l-74 25q-70 366 -337 366h-1h-10l-43 -30q-4 -20 -8.5 -41t-4.5 -37q0 -129 131 -213q12 -72 57.5 -123t100.5 -92l19 -54l-351 -448q-4 -29 -21.5 -61.5t-17.5 -55.5z" />
<glyph unicode="Y" horiz-adv-x="899" d="M0 821l16 -205q70 -172 252 -176l66 -39q-27 -102 -38 -202.5t-11 -202.5q0 -104 11 -205.5t38 -204.5q33 -14 47 -14q29 0 47 21.5t35 50.5v299q27 25 26 69l-6 90q0 90 12.5 178.5t34.5 176.5q147 88 270.5 193.5t231.5 236.5q8 10 18.5 31.5t10.5 42.5 q0 16 -11.5 29.5t-41.5 13.5l-217 -213q-145 -141 -302 -142q-76 0 -155 35q-141 96 -141 246v20t2 21l88 71q10 14 10 31q0 23 -15.5 39t-31.5 35h-74q-172 -121 -172 -326z" />
<glyph unicode="Z" horiz-adv-x="1163" d="M-20 578l178 -33q74 18 153 18q78 0 156 -18l-4 -29h-6q-27 0 -35 -25.5t-21 -44.5l-165 -127q-66 -49 -100 -97t-34 -101q0 -70 56 -137q104 -45 215.5 -65.5t228.5 -20.5q47 0 98.5 2t100.5 12l264 53q63 27 70 98q-27 10 -45 11q-14 0 -26.5 -4t-21.5 -21 q-51 10 -99 15.5t-97 5.5q-51 0 -102.5 -6.5t-104.5 -16.5q-31 33 -70 46t-79.5 19.5t-85 10.5t-82.5 14q-23 39 -23 68q0 49 37 93t88 87t101 85t79 85q53 14 122 17t131.5 9.5t112.5 23t66 54.5q4 4 5 9.5t1 9.5q0 23 -25.5 37t-53.5 14l-132 -16q-16 0 -28 2t-25 6 q16 18 36 46t36 60.5t27.5 68.5t11.5 73q0 39 -17 78q-37 80 -100 116.5t-156 36.5h-30q-43 -16 -96.5 -31.5t-100.5 -37t-81 -54.5t-38 -86v-8q0 -35 39 -35q37 0 97.5 20.5t125.5 35.5l29 2q57 0 83 -39t48 -99q-6 -166 -162 -184q-53 16 -105 22.5t-106 6.5q-45 0 -89 -4 t-87 -17l-6 19l-63 10q-12 -16 -28.5 -30.5t-31 -30t-24.5 -33t-10 -39.5v-10z" />
<glyph unicode="[" horiz-adv-x="860" d="M33 1030l57 -82v-176l43 -47l19 -164q-25 -104 -38.5 -207.5t-13.5 -208.5q0 -84 8.5 -165.5t24.5 -167.5l96 -60h127q96 41 194.5 62.5t203.5 21.5h18l113 70l20 65l-37 45h-20q-92 0 -185.5 -16t-183.5 -57l-149 28l-51 45l-21 220q47 113 68.5 231.5t21.5 245.5 q0 47 -2 97t-10 99l33 39l270 -14l76 57l55 125l-90 47q-20 -4 -41 -4h-37q-111 0 -216.5 21.5t-209.5 62.5l-115 -96z" />
<glyph unicode="\" horiz-adv-x="1040" d="M39 801q45 -129 119.5 -239.5t185.5 -203.5l35 -4l98 -108l98 -29l103 -129l178 -63l107 45l16 123l-139 126q-106 37 -189.5 111t-138.5 184l-49 4l-74 60v98l-104 211l-115 6l-111 -92z" />
<glyph unicode="]" horiz-adv-x="933" d="M-12 -94v-41l16 -17l105 9q150 -49 305 -50h24l37 19q57 -12 111 -12q184 0 311 153v49l-72 111l-47 295l-24 8l55 201q-4 33 -6 63.5t-2 63.5q0 186 63 372q-74 74 -174 74q-27 0 -51.5 -5t-52.5 -15l-60 35h-168l-92 -72l17 -74l262 -29l41 -36q-29 -123 -43.5 -245 t-14.5 -243q0 -133 16.5 -262t49.5 -258l-80 -16q-74 18 -147.5 28.5t-149.5 10.5q-43 0 -86 -7h-8l-53 -45l-17 -43z" />
<glyph unicode="^" horiz-adv-x="788" d="M47 934h64q127 68 198 196h37l21 -63l182 -195l92 -12l72 39l37 117l-125 164l-60 168l-47 38h-72l-192 -131q-33 -70 -78 -127t-104 -98z" />
<glyph unicode="_" horiz-adv-x="1384" d="M0 -100v-45l131 -74l432 -41q219 -27 428 49q104 -29 200.5 -19.5t192.5 54.5v63l-73 50l-717 -11l-66 39l-106 -6q-133 84 -291 80z" />
<glyph unicode="`" horiz-adv-x="505" d="M51 1042q0 -23 2 -46t6 -48q23 -176 189 -176q14 0 27.5 1t29.5 3q150 47 150 168v12l-107 41l-78 80v174l39 111l-24 51l-37 4q-197 -137 -197 -375z" />
<glyph unicode="a" horiz-adv-x="849" d="M0 260l14 -197q10 -49 48 -61t81 -16l25 -2q10 0 29.5 12t39 32.5t37 44t25.5 48.5q8 0 17.5 3t19.5 3l37 33l10 -29q12 -33 25.5 -65.5t32 -60.5t44 -45t60.5 -17h20q45 6 85 38.5t77 75.5t67.5 91.5t57.5 87.5q14 10 18 26.5t4 32.5q0 18 -5 33.5t-17 25.5 q-10 0 -33.5 -28.5t-54.5 -64.5t-61.5 -64.5t-51.5 -28.5q-14 0 -22 20q-29 59 -41.5 122t-12.5 122q0 20 1.5 42t3.5 42q-18 16 -27.5 44t-12.5 54.5t-5.5 48t-8.5 27.5l-88 74q-12 6 -23.5 7t-21.5 1h-39q-137 -68 -231 -203q-4 -59 -36 -111t-73 -104q-10 -23 -12 -46 t-2 -48zM205 307q0 14 2 23l18 133l11 33q16 25 34.5 43t36.5 18q25 0 37 -45q6 -18 8 -38.5t2 -41.5q0 -29 -7 -58.5t-17 -58.5q-12 -12 -24.5 -27.5t-25 -30.5t-26.5 -26.5t-31 -11.5q-4 23 -11 44.5t-7 43.5z" />
<glyph unicode="b" horiz-adv-x="587" d="M-4 496q0 -25 1 -50.5t3 -50.5l25 -207q23 -41 41 -86t18 -98v-6q43 -51 109 -51q53 0 106 22.5t102 34.5q156 156 156 363q0 23 -1 44t-5 44q-16 14 -28.5 35.5t-26 43t-28.5 37t-38 15.5l-16 -6q-78 -41 -143.5 -99.5t-110.5 -132.5l-27 66q45 180 64.5 356t19.5 363 q0 29 -1 57t-5 59l-39 21l-51 -21q-100 -145 -101 -317q0 -72 19 -148q-43 -141 -43 -288zM182 250q16 20 36 43.5t40.5 43t38.5 32t31 12.5h6q35 -10 48 -34.5t13 -53.5q0 -35 -10 -71t-20 -64l-9 -23q-31 -12 -61 -12q-43 0 -76 35z" />
<glyph unicode="c" horiz-adv-x="634" d="M-4 166q0 -20 2 -43q6 -20 11 -47t10.5 -53.5t11.5 -46t14 -23.5q41 -16 86 -16q47 0 94 -7l105 54q57 4 101 25.5t81 55t66.5 77.5t58.5 94l27 75l-29 43q-12 0 -48 -33.5t-87 -74.5t-112.5 -75t-125.5 -34q-10 0 -18 1t-19 5l-43 33q-14 37 -19 71t-5 64q0 133 108 217 q10 -2 21 -2h22h58q35 -8 58.5 -14t37.5 -10l12 -4t8 -2q6 0 7.5 7t1.5 29v13q0 31 -3.5 62.5t-13.5 41.5l-37 29q-41 10 -73 10q-41 0 -77 -11t-65 -38q-125 -82 -176 -190.5t-51 -241.5v-41z" />
<glyph unicode="d" horiz-adv-x="649" d="M-242 1034q0 -14 4 -24l62 -25q59 37 89 92.5t38 128.5q35 18 69.5 43t69.5 25q53 0 104.5 -8.5t100.5 -10.5q47 -66 81 -132t34 -152v-17q53 -78 63 -162.5t10 -175.5q-10 -8 -20 -10t-21 -2q-25 0 -47 27q-10 4 -26 4q-31 0 -53.5 -18.5t-41.5 -43.5h-8 q-10 -4 -22.5 -8t-28.5 -14t-39.5 -29.5t-56.5 -50.5q0 -6 -16.5 -22.5t-38 -37t-40 -38t-22.5 -25.5q-4 -14 -5 -29.5t-1 -27.5v-23q2 -41 7 -78.5t17.5 -72.5t34 -68t58.5 -65q16 -8 28.5 -10.5t26.5 -2.5q25 0 45 9.5t39.5 21.5t40 26.5t47.5 24.5l33 60l139 112 q139 264 139 561q0 20 -1 40t-3 42v50l-33 38l-24 146q-27 92 -56.5 158.5t-69.5 108.5t-94.5 62.5t-133.5 20.5h-37q-19 0 -37 -2l-195 -82q-209 -102 -209 -309v-25zM172 231v17q0 8 2 18q2 23 5 52.5t38 52.5q6 10 16.5 19t28.5 20h8q59 0 95 -43l2 -9q4 -16 8 -30.5 t4 -30.5q0 -57 -57 -115q-59 -35 -97 -35q-53 0 -53 84z" />
<glyph unicode="e" horiz-adv-x="675" d="M-2 281q0 -16 1 -25.5l2 -19t2 -20.5t1 -30q0 -18 5 -55t7 -55q29 -70 73 -104.5t122 -34.5q55 0 111 14q117 41 209 110.5t147 174.5l6 20q6 18 12 36.5t6 35.5q0 27 -26 26q-10 0 -31.5 -23.5t-49.5 -55t-61.5 -64.5t-70.5 -51l-33 -2q-29 0 -66.5 -18.5t-72.5 -18.5 q-27 0 -42.5 13t-15.5 48v11q29 6 64 15t67.5 22.5t59.5 34t39 50.5q129 63 129 201v19q0 10 -2 20l-29 23l-24 96l-35 35h-6q-20 2 -40 3t-40 1q-39 0 -77 -8.5t-71 -32.5q-84 -66 -156.5 -148t-101.5 -170q-8 -18 -10 -36.5t-2 -36.5zM217 373q0 10 1 18t3 19l21 86 q37 41 60.5 57t45.5 16q23 0 44.5 -14t53.5 -41q4 -8 5.5 -14t1.5 -13q0 -33 -14.5 -59.5t-35.5 -30.5q-47 -33 -77.5 -47t-46.5 -16h-19q-27 0 -35 11t-8 28z" />
<glyph unicode="f" horiz-adv-x="634" d="M-35 307q0 -33 35 -74q12 -8 27.5 -10t31.5 -2q37 0 71 8.5t52 8.5t19 -13l-6 -20q-29 -133 -45.5 -228.5t-16.5 -158.5q0 -66 17.5 -173.5t50.5 -254.5q16 -25 38.5 -35t51.5 -17q8 18 23.5 35t30.5 33t26.5 34.5t11.5 39.5q0 8 -4 20l-43 43q-20 102 -29.5 178 t-9.5 129q0 49 8 144.5t29 222.5l69 -8h29q37 0 64.5 -2t54.5 -2t38 4t36 20l10 4q10 0 14 14.5t4 35.5q0 18 -4 36.5t-14 34.5q-18 4 -19.5 8.5t-15.5 4.5q-10 0 -24.5 -2.5t-30.5 -10.5q-47 -18 -83 -26.5t-59 -8.5q-47 0 -47 29q0 8 5.5 17.5t11.5 19.5q-6 63 -6 98 q0 27 4 50.5t12 50t20.5 61.5t28.5 88q184 211 191 479q23 29 31 56.5t8 58.5l-15 193l-47 41q-8 2 -16 2h-11q-41 0 -66.5 -29t-53.5 -55q-63 -162 -102.5 -332t-51.5 -346q-35 -104 -52.5 -206.5t-21.5 -213.5l-65 -39l-176 12q-18 -29 -19 -47z" />
<glyph unicode="g" horiz-adv-x="673" d="M-444 -791q29 -12 58.5 -22t57 -22.5t51 -32t39.5 -50.5l308 -55q231 4 438 113q172 125 172 305q0 55 -14 111q-59 166 -175 269t-290 146v27q203 35 307 211l49 24l12 52q0 31 -26 30q-4 0 -10.5 -2t-16.5 -4l-205 -116q-29 -6 -63 -7q-35 0 -60.5 13.5t-25.5 50.5v16 q0 160 143 254l47 -20q-10 -23 -19 -40.5t-9 -33.5t10 -31l100 21q29 57 87.5 97t109.5 50l71 29l48 47v51l-41 8l-50 -34q-37 -12 -71.5 -32t-69.5 -38.5t-71.5 -31.5t-75.5 -13h-4q-8 16 -14.5 33.5t-15.5 33t-22.5 25.5t-31.5 10q-6 0 -12.5 -1t-16.5 -3 q-254 -188 -254 -473q0 -33 2 -66.5t10 -68.5l74 -68q-31 -35 -58.5 -74.5t-27.5 -76.5q0 -59 84 -88q59 -8 112.5 -31t90.5 -74q18 -10 37.5 -17t35 -18.5t25.5 -27t10 -39.5v-6q27 -12 43.5 -31.5t28.5 -43.5t22.5 -49.5t26.5 -45.5q-8 -47 -43 -68.5t-80 -34t-93 -22.5 t-83 -31q-59 8 -121 8q-59 0 -117.5 7.5t-112.5 27t-99 66.5q-10 23 -15.5 50t-13.5 54t-23.5 46.5t-46.5 27.5l-59 -49z" />
<glyph unicode="h" horiz-adv-x="696" d="M-12 20q8 -12 13 -15t15 -3q12 0 24.5 3t22.5 5q20 31 44 76t51.5 88t61.5 78t77 43l45 -262q12 -73 49 -105q20 -17 40 -17q18 0 38 13l39 27q35 27 50 53.5t28.5 58t36 73.5t69.5 100q10 14 19.5 39.5t9.5 41.5q0 18 -3 30.5t-9 12.5q-12 0 -36 -25.5t-49.5 -57 t-47 -57t-25.5 -25.5l-3 17t-7 46t-12.5 65.5t-20.5 77.5l-4 17q-16 47 -48 76.5t-79 29.5q-8 0 -18.5 -2t-22.5 -4q-18 -6 -44 -12t-53.5 -18.5t-54 -33t-47.5 -53.5q6 66 10.5 146t12.5 162t22.5 159.5t40.5 139.5q-2 10 -2 20v25q0 166 170 237l-20 131l-49 41l-68 8 q-43 0 -73.5 -24.5t-55.5 -60t-45.5 -77.5t-42.5 -77q-2 -41 -2 -90v-101v-116q0 -49 -1 -95.5t-2 -81t-5 -57t-11 -28.5z" />
<glyph unicode="i" horiz-adv-x="544" d="M-16 315q0 -18 2 -48.5t14 -30.5q6 0 18.5 15t30 35.5t35.5 38t35 17.5q4 0 4 -18v-25q0 -16 -2 -43t-4 -54.5t-4 -51t-2 -35.5v-6q2 -18 2 -39q0 -18 3 -37t12 -35t32 -27q29 -8 55.5 -12t54.5 -4q47 0 85 25.5t71 66.5t62.5 91t62.5 100q4 14 13 36.5t9 40.5 q0 29 -20 41q-10 0 -23.5 -18.5t-29 -43t-28.5 -46t-19 -27.5q-18 -18 -31.5 -40.5t-32.5 -22.5q-23 0 -38 13t-15 36l16 330q-4 6 -12 25.5t-18 17.5l-43 -13q-45 -14 -71 -21t-40 -13.5t-22.5 -15.5t-20.5 -28q-20 -14 -28.5 -25t-26.5 -30q-8 -6 -22.5 -21.5t-29 -34 t-24.5 -35.5t-10 -28zM160 985q8 -18 30.5 -27.5t51.5 -9.5h16q57 29 89 75t32 112l-6 28l-33 19l-82 -27q-47 -29 -72.5 -73t-25.5 -97z" />
<glyph unicode="j" horiz-adv-x="548" d="M-106 -623q0 -20 22.5 -45.5t58 -48t77.5 -38t83 -15.5h21q10 0 20 4q49 18 84 48t59.5 68t42 82t31.5 91l-14 375q12 53 13 87.5t24 59.5l26 29q27 47 55.5 77.5t51.5 84.5q10 23 13 44t3 39q0 12 -3 22.5t-13 10.5l-178 -166q6 29 7 62t1 63q0 51 -3 93t-3 67l37 66 q0 8 -8.5 23t-20.5 28.5t-27.5 24t-31.5 10.5h-11q-66 -45 -108.5 -80t-74.5 -66t-61.5 -61.5t-68.5 -63.5l-2 -10q-8 -20 -14.5 -40.5t-6.5 -35.5q0 -31 25 -30q18 0 32.5 14t32 33.5t40 39t55.5 29.5l22 -159q-2 -23 -2 -43v-37q0 -176 45 -338l35 -45q6 -10 12.5 -43 t6.5 -68q0 -25 -3.5 -44t-9.5 -30q-14 -2 -17 -14t-3 -27v-16q0 -10 -4 -18q-27 -39 -62 -39q-37 0 -64.5 23.5t-58.5 41.5q-4 2 -4 15q0 20 12.5 60t28 81t27.5 73.5t12 41.5q0 2 -2 2q-8 0 -39 -45.5t-102 -165.5q-12 -20 -28.5 -42t-32 -45.5t-25.5 -47t-10 -46.5z M336 1047q0 -37 33 -62q8 -2 14 -2h14q29 0 54.5 14.5t44 37t30 51t11.5 59.5v14t-5 17l-26 49q-20 4 -31 4q-35 0 -61.5 -21.5t-48.5 -44.5l-11 -10q-2 -27 -10 -54.5t-8 -51.5z" />
<glyph unicode="k" horiz-adv-x="688" d="M20 61q0 -20 5.5 -35.5t21.5 -25.5h37q25 0 43 10t31.5 26.5t21.5 36t15 36.5q59 -47 109 -88t99.5 -72t104.5 -49.5t127 -18.5q27 12 49.5 19.5t43 16.5t36.5 22.5t31 37.5l-23 52q-23 6 -43 7t-49 1q-68 0 -119 23.5t-99 62.5t-101.5 87t-124.5 97q-4 6 11 11.5t32 5.5 l43 -2q37 0 82 -13.5t73 -13.5h6q166 68 166 211v10q-37 25 -80 25l-200 -29q-27 -16 -52.5 -32.5t-54.5 -16.5q-20 0 -45 14v41q0 41 6 78t31 70l16 454q0 23 16.5 47.5t28.5 51.5q23 -29 56 -29q10 0 23.5 3t23.5 13q8 43 10 84t2 84v41q0 20 -2 43l-33 27h-59l-143 -117 q-109 -143 -109 -315q0 -86 29 -185l-19 -67q10 -23 12.5 -47.5t2.5 -48.5l-19 -267q-4 -74 -16.5 -145.5t-53.5 -134.5v-97z" />
<glyph unicode="l" horiz-adv-x="438" d="M12 369q16 -29 21.5 -58.5t5.5 -64.5l-6 -131v-21q0 -10 2 -20q14 -12 25.5 -34t23.5 -41t26.5 -33.5t36.5 -14.5q2 0 6.5 1t8.5 1q45 16 81 47t68.5 70t63.5 82t65 84l19 51q0 35 -3 51t-18 16q-8 0 -23.5 -19.5t-34 -44t-37.5 -48t-32 -31.5l-69 -29q-20 0 -25 29 q-24 118 -24 226v9q0 145 37.5 281.5t117.5 263.5q6 27 10 55.5t12.5 56t22 52.5t35.5 45q-2 18 -2 35v35q0 125 41 233l-23 25q-6 4 -22 4q-31 0 -58.5 -14.5t-56.5 -28.5q-213 -215 -213 -510q0 -68 12 -141l3 -13q-63 -70 -80 -153.5t-17 -171.5v-131z" />
<glyph unicode="m" horiz-adv-x="1486" d="M-14 295q0 -25 3 -42t13 -17q8 0 27.5 11t41 29.5t42 39t30.5 38.5v-368q4 -72 76 -72q14 0 38 14.5t47.5 39t42 56t22.5 66.5l188 172q4 4 12 4q14 0 27.5 -12t17.5 -23l33 -211q10 -25 24.5 -32.5t30.5 -7.5q27 0 55.5 16t55.5 24l191 228l30 -6q10 -41 24.5 -64.5 t26.5 -64.5l21 -64q25 -35 40 -44t48 -9q47 0 95 15.5t79 49.5q31 31 60.5 84.5t58.5 90.5q16 27 18 45t2 30v23q0 8 -9 14t-13 6q-10 0 -28.5 -25.5t-39 -55t-39 -54t-26.5 -22.5q-47 49 -68.5 108.5t-40.5 124.5q-10 10 -18 27.5t-15.5 33t-18.5 26.5t-28 11q-4 0 -8 -1 t-8 -1q-74 -59 -137.5 -126.5t-112.5 -145.5h-47l-59 176q-14 29 -35 40t-43 11q-27 0 -48.5 -17.5t-35.5 -45.5q-43 -14 -81 -39t-73 -54.5t-66.5 -62.5t-64.5 -65v213q-12 14 -16 32.5t-4 34.5v60l-62 77l-51 4q-35 0 -61.5 -28.5t-51 -69.5t-48 -87t-52.5 -79 q-10 -10 -11 -26.5t-1 -32.5z" />
<glyph unicode="n" horiz-adv-x="1030" d="M-20 293q0 -20 5 -38.5t17 -18.5q4 0 15.5 11t25.5 26.5t26.5 29.5t18.5 21l6 -2q16 -10 32.5 -29t16.5 -74v-217q12 -16 28.5 -21.5t37.5 -5.5h29q25 27 51 52.5t48.5 53.5t40 58.5t23.5 67.5q16 12 32 28.5t31 33t32.5 27.5t40.5 11h4l16 -307q12 -8 46 -27.5t59 -19.5 h12q37 0 94 26.5t116.5 76.5t108.5 121t68 159l-31 18q-8 0 -18.5 -6t-19.5 -14t-15 -16.5t-6 -10.5q-23 -49 -70 -91t-92 -42q-23 0 -33 27l-24 315l-43 49l-56 4q-43 -16 -76.5 -45.5t-63.5 -64.5t-57.5 -73t-60.5 -71q-23 6 -33 24.5t-14 43.5t-7 50.5t-13 43.5 q-16 33 -44 48.5t-61 15.5q-27 0 -44 -5.5t-34.5 -19.5t-41 -38.5t-62.5 -63.5l-41 -60q-12 -14 -16 -31.5t-4 -29.5z" />
<glyph unicode="o" horiz-adv-x="661" d="M4 242q0 -16 3 -35t5 -35q4 -37 8.5 -73t13.5 -68.5t29.5 -59t59.5 -43.5q37 -6 74 -6q41 0 78.5 6t78.5 19l25 6q270 180 270 479v10q-68 160 -231 160q-31 0 -64 -8l-137 -39q-213 -109 -213 -313zM182 319v33l41 49q33 2 63.5 5.5t61.5 3.5q35 0 68 -5.5t61 -21.5 q20 -18 24.5 -37.5t4.5 -46.5v-31q-16 -153 -168 -153h-2q-29 0 -56.5 10t-56.5 20q-20 41 -30.5 84t-10.5 90z" />
<glyph unicode="p" horiz-adv-x="835" d="M-25 291q0 -18 9.5 -32.5t31.5 -20.5l84 77l27 -77q16 -53 16 -138v-178l29 -53l2 -45q0 -66 -16.5 -126t-44.5 -116q2 -31 2 -61v-62q0 -92 -9.5 -186t-31.5 -186q2 -18 19.5 -21.5t27.5 -3.5h2q27 0 49.5 18.5t44.5 38.5l8 11q10 10 26.5 36.5t16.5 42.5l-2 9 q-49 172 -49 340q0 211 74 426q29 10 57.5 25.5t56 29.5t56 24.5t59.5 10.5h12q45 29 94.5 64.5t90.5 78.5t67.5 93t26.5 108v22l-57 74q-49 12 -101.5 21.5t-103.5 9.5q-53 0 -103.5 -12.5t-93.5 -43.5q-25 16 -46 22.5t-44 6.5q-37 0 -70.5 -19.5t-65.5 -45t-63.5 -53 t-64.5 -46.5q-10 -14 -16.5 -30.5t-6.5 -32.5zM299 211l8 68q27 29 58.5 52t66.5 23h98q16 -16 33 -40.5t17 -34.5q0 -16 -16.5 -29.5t-40 -26t-47 -24t-36.5 -23.5l-88 -4q-16 0 -28.5 5t-16.5 24z" />
<glyph unicode="q" horiz-adv-x="653" d="M0 131l63 -57q53 2 92.5 26.5t80.5 36.5q16 0 24 -15.5t12 -35.5t8.5 -44t12.5 -40q16 -12 22.5 -27.5t6.5 -33.5q0 -20 -3.5 -40t-7.5 -38q43 -66 57.5 -138.5t14.5 -150.5l-18 -360l2 -60q4 -31 27.5 -48t51.5 -17q37 0 68 30l41 84q-14 72 -19.5 126.5t-5.5 95.5 q0 70 7.5 118.5t7.5 108.5q0 14 -1 30.5t-3 34.5v121l-37 68l8 108l139 219q10 12 17.5 35t7.5 43q0 18 -6 31.5t-17 13.5l-157 -174v35l34 301q0 43 -10 82t-39 68l-98 8l-121 -41q-133 -92 -197.5 -216t-64.5 -276v-12zM188 322q0 16 13.5 42.5t29.5 49.5l37 32l66 -16 q2 -4 2 -10v-10q0 -35 -31 -57.5t-55 -33.5q-14 -10 -24.5 -12t-18.5 -2q-18 0 -19 17z" />
<glyph unicode="r" horiz-adv-x="722" d="M-14 315q0 -41 2 -60t12 -19l98 75q14 0 21 -28q10 -33 20.5 -72t20.5 -79t21.5 -78t23.5 -70q27 -33 65 -33l15 2q25 10 43 26.5t34.5 36t34 39t41.5 35.5q-4 23 -9 51.5t-9 57t-8 54.5t-4 44q0 23 6 27q62 114 198 114h2q47 0 109 -16h2q6 0 13 15.5t16.5 35t20.5 39.5 t26 31l-25 20q-18 2 -36.5 4t-34.5 2q-96 0 -184.5 -35.5t-162.5 -107.5l-16 29q-4 12 -18.5 25.5t-32 24.5t-34.5 20.5t-26 15.5q-39 -4 -82 -32t-79.5 -63.5t-60 -72.5t-23.5 -58z" />
<glyph unicode="s" horiz-adv-x="688" d="M-20 285q0 -16 5 -32.5t15 -16.5t20.5 10t18.5 14l131 166q0 -27 24.5 -53.5t61.5 -49t80 -39t78 -22.5q10 0 23.5 -19.5t13.5 -25.5q0 -10 -17.5 -23.5t-41 -26.5t-46 -25.5t-31.5 -20.5l-6 2q-37 20 -75.5 35.5t-81.5 15.5h-15q-6 0 -16 -2q-31 -14 -42 -38.5 t-14.5 -53.5t-4.5 -58.5t-7 -56.5q29 -10 57.5 -12t57.5 -2q88 0 172 33q154 39 232.5 125t86.5 215q-102 106 -231 139q-12 10 -12 29l2 28q-10 16 -17.5 32.5t-15.5 33.5l-20 20q-12 4 -21.5 6t-19.5 2q-27 0 -50.5 -11t-45 -26.5t-43 -33t-42.5 -31.5 q-41 -39 -65.5 -64.5t-39.5 -42t-22.5 -28.5t-15.5 -23q-10 -8 -15 -35.5t-5 -33.5z" />
<glyph unicode="t" horiz-adv-x="630" d="M-10 514q0 -2 10 -20.5t29 -26.5l131 -23q4 -12 4 -34q0 -23 -3 -48.5t-3 -46.5v-18q-16 -37 -25.5 -69.5t-9.5 -67.5q0 -96 74 -176h45q29 0 82 16t111.5 48t111.5 80t82 110q6 29 12 52t6 40q0 25 -16 24q-18 0 -33.5 -23.5t-44.5 -53t-80 -55t-143 -29.5l-2 4 q-12 33 -13 71l9 201q12 23 60 32t99.5 12t93 4t41.5 9l-6 78q-4 4 -9 25.5t-15 21.5t-38 4t-46 4t-26.5 1.5t-16.5 2.5t-20.5 2t-39.5 1h-22l-21 30l11 260l-50 17q-49 -23 -80.5 -58.5t-51 -81t-27.5 -96.5t-13 -106l-94 -8q-31 0 -34 9t-17 15q-8 -8 -10 -26.5t-2 -32.5 v-15l10 -41q0 -10 -5 -12t-5 -6z" />
<glyph unicode="u" horiz-adv-x="1015" d="M-16 254q0 -18 16 -18q10 0 32.5 28.5t48 64.5t51.5 64.5t44 28.5t19 -29v-10t-2 -12l-19 -103q-23 -43 -36 -83t-13 -79q0 -35 8 -67.5t27 -63.5h49q92 0 166 42t121 120l67 182q0 -164 66.5 -265t191.5 -107q33 18 59.5 50t49 70.5t43 82t39.5 86.5q4 14 11 23t7 32v31 q0 8 -1 20t-11 12l-23 -43q-16 -25 -34.5 -55.5t-38 -58t-42 -47t-49.5 -19.5q-63 66 -80.5 152t-17.5 176l4 59q0 14 -4 24.5t-18 20.5q-92 -16 -163 -98t-124 -223q-10 -25 -29.5 -35t-33.5 -10q-20 0 -29 10q18 51 29.5 110.5t11.5 116.5q0 61 -7.5 87t-27.5 48l-20 23 q-10 4 -24.5 8t-25.5 4q-37 -2 -65.5 -18.5t-54 -39t-49 -49t-46.5 -46.5q-35 -37 -54 -83t-19 -69v-45z" />
<glyph unicode="v" horiz-adv-x="937" d="M-16 307q0 -29 3 -50t13 -21q8 0 26.5 22.5t40 50t45 51t44.5 23.5q12 0 20 -10q12 -14 17.5 -51t15.5 -72q-4 -20 -6 -41t-2 -41q0 -84 32 -164l74 -45q141 84 263 199.5t214 251.5q6 -12 14.5 -42t22 -63t32.5 -57.5t48 -24.5q10 0 19.5 4t21.5 9q4 0 10 23.5t6 47.5 q0 18 -4 32.5t-16 14.5l-39 90q-20 47 -26.5 92.5t-16.5 92.5q-8 4 -22.5 8t-26.5 4l-12 -2q-41 -16 -71 -37.5t-65 -56.5q-20 -20 -20 -53q0 -23 5 -45.5t9 -45.5l-176 -190q-29 6 -37 25.5t-8 46.5v30t-2 29q-51 221 -258 227q-35 -18 -60.5 -44.5t-47 -57.5t-41 -64.5 t-39.5 -68.5v-27z" />
<glyph unicode="w" horiz-adv-x="987" d="M-25 285q6 -12 10.5 -30.5t14.5 -18.5q8 0 21.5 19t37.5 67l56 67q18 39 41 39q14 0 16 -27q-16 -63 -22.5 -123.5t-6.5 -119.5t6.5 -117.5t22.5 -114.5q4 -16 27.5 -27.5t42.5 -11.5q35 8 61.5 29t49 45.5t44 51t43.5 50.5q35 -8 63.5 -31.5t51.5 -45.5l6 -6l17 -3 q35 0 65.5 18.5t61.5 29.5q229 178 229 464q0 31 -2 63t-8 64l-56 97q-33 16 -71.5 21t-73.5 5q-78 -41 -147.5 -94t-112.5 -131q-4 -8 -5 -12t-1 -10q0 -25 21.5 -30t49.5 -5q35 37 77 66.5t91 29.5q25 0 43 -8q51 -66 52 -148q0 -41 -12.5 -83t-41.5 -83h-47 q-23 45 -51.5 89.5t-87.5 46.5l-143 -191q-10 -4 -19.5 -10t-19.5 -6q-12 0 -21 20v357l4 12q0 16 -10 28.5t-20 28.5q-10 14 -21.5 18.5t-21.5 4.5q-25 0 -50.5 -20.5t-51 -46t-52.5 -50.5t-53 -31q-12 -25 -28.5 -50t-32 -51t-26 -50.5t-10.5 -44.5z" />
<glyph unicode="x" horiz-adv-x="782" d="M-20 -98q0 -12 6 -22.5t28 -10.5h11l260 278q27 -8 47 -21t35 -38l75 -59l39 -2q90 0 164 45t125 137v41q-25 18 -57 18l-107 -8l-92 107q10 37 33.5 64.5t52.5 51t60.5 45t60.5 45.5v2q0 20 13.5 48t15.5 51h-41q-74 -29 -138.5 -89.5t-111.5 -125.5l-111 92 q-14 4 -26 4h-25q-82 0 -156.5 -57.5t-138.5 -143.5q-4 -14 -9 -30.5t-5 -32.5q0 -45 24 -55l119 88q23 0 46.5 -15.5t64.5 -72.5l-256 -293q-2 -10 -4 -20.5t-2 -20.5z" />
<glyph unicode="y" horiz-adv-x="782" d="M-100 -408q0 -45 12 -86t32.5 -78.5t44 -75.5t46.5 -77q78 -102 182.5 -151.5t222.5 -53.5l68 -2l127 131q66 117 96.5 239t30.5 251q0 80 -14.5 164t-38.5 167q2 33 16 55.5t14 39.5q0 12 -13 21t-48 14q-10 18 -13 53t-4.5 75.5t-2.5 82.5t-8 77t-22.5 56.5t-41.5 21.5 h-17q-20 -16 -32.5 -43t-27.5 -54.5t-40 -48t-68 -22.5q-12 2 -18 25.5t-11 59.5t-14.5 78t-27.5 79l-31 47l-88 6q-25 -6 -54.5 -46t-58 -88t-55.5 -92t-45 -63q-2 -23 -5 -42t-3 -31q0 -49 22 -50l174 166q49 -57 50 -127q0 -29 -9.5 -65.5t-25.5 -77.5l135 -8 q16 12 35.5 19t38 15.5t36 19.5t31.5 34q8 -18 10 -33.5t2 -28.5l-6 -84q-178 -55 -319 -153t-252 -238q-8 -20 -10 -39.5t-2 -38.5zM63 -373l74 92l326 207l14 2q16 0 26.5 -10t19.5 -23.5t17.5 -29t20.5 -25.5l33 -499q-23 -66 -74 -82.5t-112 -16.5q-258 102 -345 385z " />
<glyph unicode="z" horiz-adv-x="798" d="M-340 -586q0 -16 8 -28.5t10 -26.5q16 -23 36 -50.5t43.5 -52t48 -42t49.5 -17.5q31 0 57 25q8 -23 27 -23q12 0 24 10.5t21 26.5q29 -14 55.5 -25.5t50.5 -23.5q41 8 82 10t82 2q49 0 100.5 -4t100.5 -10l77 -10q23 18 46.5 24t48.5 6q37 0 73 -6q57 18 106.5 58.5 t85.5 94.5t58.5 119.5t30.5 133.5l4 28q0 61 -20.5 114.5t-50 102t-64.5 93.5t-64 92l-96 51q-18 49 -52 74.5t-74 40t-82 26t-74 29.5v41l12 14q29 35 52.5 72t29.5 80v39q-18 20 -30 43.5t-28 46.5l-34 2l-142 -33q-12 0 -24 4q-59 -35 -109.5 -82t-97.5 -94 q-29 -14 -44.5 -40.5t-15.5 -55.5q0 -35 23 -62q31 18 55.5 45t50 54.5t54 49t65.5 28.5l29 -15q6 -16 9 -22t3 -11v-2q-18 -47 -52 -82.5t-75 -64.5q-4 -10 -4 -18t-2 -19v-24q0 -27 13.5 -45.5t33 -32t41 -22.5t39.5 -17q-86 -41 -168 -85t-166 -100 q-100 -70 -167.5 -185.5t-98.5 -248.5zM-211 -516q45 84 102.5 154.5t128.5 123.5l39 2q4 10 10.5 21.5t12.5 21.5q78 47 159 81t162 73q135 -53 241 -168t159 -264v-66v-32q0 -16 -2 -33q-39 -16 -79 -28.5t-81 -24.5q-29 10 -57.5 13t-57.5 3q-90 0 -170 -35 q-61 23 -120 23q-29 0 -55.5 -4t-55.5 -17q-6 8 -19 8h-28q-33 8 -73 24.5t-79 16.5q-14 0 -22 -2q-16 8 -36 17.5t-36 21t-28.5 27.5t-14.5 43z" />
<glyph unicode="{" horiz-adv-x="757" d="M47 219l74 -37l47 -194l-29 -267l-28 -45v-313q16 -248 219 -248l178 109l57 67v58l-125 -15l-69 72q-43 129 -43 260q0 129 43 262l32 47v201l-73 191q131 123 197.5 275.5t70.5 332.5l-33 53v135l125 78l23 70l-60 63h-75l-148 -104q-115 -115 -115 -262q0 -88 43 -187 v-33q0 -319 -286 -473z" />
<glyph unicode="|" horiz-adv-x="360" d="M59 371l41 -88v-506l33 -56h47l56 56q27 109 26 225q0 113 -24 223q29 96 43 190.5t14 190.5q0 53 -3 104.5t-13 102.5l-41 39h-50l-125 -119l-4 -84v-278z" />
<glyph unicode="}" horiz-adv-x="604" d="M20 -825l93 -109l51 -10l67 18q227 147 228 406v6q-35 111 -52.5 222.5t-17.5 228.5q0 78 8.5 156.5t22.5 156.5l129 123l16 82l-123 63l-114 148l-9 180q57 145 58 295q0 152 -58 299l-63 59l-47 4l-76 -41l-49 -71q59 -168 59 -334q0 -168 -59 -334q-2 -16 -2 -31v-26 q0 -104 44 -192.5t140 -158.5v-55l-69 -108q-23 -88 -34 -177.5t-11 -181.5q0 -123 20.5 -241.5t58.5 -241.5l-22 -23l-115 21l-33 -21z" />
<glyph unicode="~" horiz-adv-x="1067" d="M51 162l49 -31q104 63 162 168l84 -4q63 -76 122.5 -114t121.5 -38q92 0 174 82l221 221l21 84l-58 15l-96 -105l-117 -57q-84 86 -181 133t-208 53q-188 -63 -252 -245l-37 -25z" />
<glyph unicode="&#xa1;" horiz-adv-x="344" d="M33 -324l24 -49h25l74 92v136l32 55l23 196q68 135 68 285q0 29 -3.5 58.5t-7.5 62.5l-6 20l-57 19l-109 -107zM162 1057l43 -88l63 -11l49 50l27 122l-45 74h-55l-82 -84v-63z" />
<glyph unicode="&#xa2;" horiz-adv-x="724" d="M0 291q2 -68 30.5 -136.5t75.5 -97.5l-81 -204q8 -2 22 -3q29 0 60.5 14.5t50.5 29.5q10 49 35.5 78.5t48.5 60.5q4 6 22.5 7t45 5t58 14.5t62.5 34.5q35 43 86 59.5t100 34.5q10 35 39 53.5t58 37.5q10 10 10 24q0 16 -20.5 22.5t-36.5 16.5q-109 -68 -228 -68h-28 q-12 0 -27 5q29 45 52.5 90t40 79.5t27.5 55t15 16.5q8 -6 21 -6q14 0 28.5 14.5t28.5 34t28.5 39t28.5 27.5q-27 53 -26 96q0 49 22.5 90t40.5 82v135l-55 17q-37 -33 -72 -66t-35 -84q0 -18 2 -29l-30 -63q-41 8 -90 8q-66 0 -111 -18q-154 -80 -226.5 -206t-72.5 -294v-6 zM182 459q0 37 8.5 71.5t28.5 63.5l64 31h51l59 -50q-27 -94 -75 -173.5t-97 -108.5q-39 78 -39 166z" />
<glyph unicode="&#xa4;" horiz-adv-x="1292" d="M0 -426v-45l41 -10l80 51q55 102 128 191t165 165q205 12 352 123l72 -186l63 -80q25 -80 73 -115t83 -35h10l80 31l49 51v74l-137 105l-74 110h-65l-82 109q10 10 20 23.5t23 25.5q162 158 161 303q0 104 -81 201l10 30q98 72 178 158t143 195v47l-49 20 q-225 -158 -342 -414l-162 -26l-104 -60h-29l-131 109l-106 135l-74 25l-49 84l-74 16l-25 -16l-16 -84l-37 -47l27 -105l141 -127h105l34 -20v-105l-67 -186l49 -279q-121 -88 -216 -197.5t-167 -244.5zM518 369l37 71l170 92l106 -18l54 -57v-43l-109 -226l-190 -41 l-56 54z" />
<glyph unicode="&#xa5;" horiz-adv-x="2953" />
<glyph unicode="&#xa6;" horiz-adv-x="475" d="M100 -500q25 -70 36 -141.5t11 -144.5q0 -31 -2 -64t-6 -63l49 -31q154 45 172 205q-68 248 -67 503q0 135 18 275l-63 33l-64 -56l-78 -104q6 -47 10.5 -97.5t4.5 -97.5q0 -53 -5 -107t-16 -110zM125 616l18 -120l52 -52l6 -145l37 -49h57l57 49l27 164v774l-43 33h-41 l-94 -43l-58 -97z" />
<glyph unicode="&#xa7;" horiz-adv-x="1083" d="M-557 -901l63 -19q166 4 323 44t304 112q332 23 602 201q23 59 62 106t92 88q6 25 6 52q0 135 -158 186l-2 43l84 63q78 61 120 128t42 145q0 49 -18 104q-59 72 -138.5 110t-171.5 38h-22q-10 0 -25 -4l-82 98v129q80 221 277 350h106l74 107v41l-82 22l-135 -59 l-96 -103h-21l-57 -88q-109 -63 -163 -150t-58 -204q-45 -74 -45 -137q0 -68 45 -135q-55 -74 -94 -153t-62 -165q-2 -12 -2 -24v-23q0 -178 174 -281q86 -4 155.5 -38.5t127.5 -90.5v-32q-408 -211 -861 -281l-102 8l37 62l84 57l-14 49h-45q-305 -88 -324 -356zM414 131 l88 176h14q166 0 258 -145v-60l-127 -88l-178 -18l-51 45z" />
<glyph unicode="&#xa8;" horiz-adv-x="827" d="M51 958l121 -127l111 -6l125 119l10 47l-103 125l-116 23l-123 -111zM459 926l110 -95l68 -18l104 96l35 95l-90 112l-63 17l-146 -125z" />
<glyph unicode="&#xa9;" horiz-adv-x="1767" d="M-10 113q0 -33 3 -68t7 -70l63 -170q106 -133 235.5 -201.5t283.5 -68.5h30q16 0 31 2q387 29 660 318q238 104 307 333q158 164 157 404v33q-2 301 -288 456l73 156l-184 115l-248 24q-266 -25 -477 -186q-178 -117 -307 -267.5t-213 -344.5l-39 -41 q-47 -104 -70.5 -209t-23.5 -215zM147 158q4 139 43 266t109 244q211 403 635 501h41l10 -30l-104 -74l-25 -74l45 -16q94 59 184 59q78 0 142 -41l67 15l283 -244l57 -318l-28 -38l-29 -140l-41 -32q-55 -240 -299 -342l-29 -41q-137 -25 -247 -132l-236 -32l-57 28h-6 q-166 0 -293 71t-211 212zM594 162l49 -56l270 -22l154 78l41 88l-16 18l-148 -8l-131 47q-14 45 -14 96q0 139 135 248h41l74 -88q176 33 176 199v18q0 10 -4 21l-88 86l-84 10q-225 -106 -301 -319l-46 -27q-109 -166 -108 -365v-24z" />
<glyph unicode="&#xaa;" horiz-adv-x="827" d="M0 825l25 -49q25 -10 48 -17t46 -7q96 0 172 104h43l67 -117l129 -18q92 16 167 65.5t130 126.5v45l-55 13l-39 -27l-117 -6l-61 90l-25 193l-59 22l-57 72l-115 8l-141 -102q-80 -78 -119 -173.5t-39 -201.5v-21zM207 993v115l24 39l68 -21l35 -98l-39 -37l-70 -16z" />
<glyph unicode="&#xab;" horiz-adv-x="1226" d="M0 219l16 -72q217 -109 459 -108h55q53 18 91 51t38 72q0 8 -2 14l-4 12q-2 8 -21.5 17.5t-48 20t-65.5 19.5t-74 15q-57 0 -118.5 20.5t-114.5 43.5l-16 45l391 487v64l-68 14l-96 -88l-49 -113l-369 -434zM369 406q0 -29 32.5 -48.5t86 -34t118 -24.5t127 -21.5 t116.5 -24.5t85 -34l162 -129l112 47l19 94l-47 68l-131 70q-221 14 -414 145l24 72l299 295l11 53l-51 4q-129 -94 -243 -198.5t-218 -225.5q-47 -35 -67.5 -61.5t-20.5 -46.5z" />
<glyph unicode="&#xac;" horiz-adv-x="886" d="M0 496l147 -82l455 -62l16 -53l-55 -283l31 -28h43l104 96l72 268l57 78l17 125l-17 23q-35 -6 -69.5 -8.5t-67.5 -2.5q-203 0 -381 92l-268 17l-43 -37z" />
<glyph unicode="&#xad;" horiz-adv-x="1085" d="M90 299l31 -31h147l654 99l86 92v71l-37 25l-137 -27l-39 27h-140l-407 -27l-158 -161v-68z" />
<glyph unicode="&#xae;" horiz-adv-x="2021" d="M27 553v8q0 141 76.5 300t236.5 310.5t408 264.5q59 27 132.5 54.5t149.5 51t146.5 37.5t123.5 14h19q23 47 46.5 98.5t43.5 98.5q35 8 52.5 13t33.5 16q8 6 16.5 9t16.5 7q-14 -25 -43 -94q-23 -45 -37 -74t-31 -61q20 4 39 4h43q102 0 192.5 -28t157 -84t104.5 -141 t38 -198q0 -164 -57.5 -295t-158 -235.5t-220 -180t-269.5 -149.5q-41 -57 -75.5 -97t-82.5 -83q23 0 50.5 -6.5t70.5 -14.5q80 -16 142.5 -29.5t111.5 -23.5l17 -4q49 -10 98 -23.5t96 -29.5q23 45 43.5 80.5t48.5 72.5q31 39 76 80t111 90l8 4q8 2 20 2 q-70 -49 -115.5 -94t-76.5 -88q-14 -18 -26.5 -39.5t-22.5 -40.5l-2 -2q-10 -23 -21.5 -50.5t-27.5 -63.5q-8 -16 -15.5 -30.5t-11.5 -27.5q-39 16 -84 28.5t-94 22.5l-250 56q-76 16 -134.5 26.5t-99.5 20.5q-23 -16 -70.5 -40t-125.5 -52q-66 -20 -126.5 -29.5 t-115.5 -9.5h-8q-135 0 -240.5 55t-178.5 146.5t-110.5 208t-37.5 239.5zM133 594q0 -117 36 -235.5t105.5 -213t170 -154t229.5 -59.5h6q78 0 164 23l39 20q47 29 67.5 40.5t42.5 29.5q-100 20 -201.5 30.5t-226.5 10.5q-92 0 -190 -6l14 14q16 16 25.5 28.5t13.5 33.5 q92 0 190.5 6t196.5 21.5t191.5 39t177.5 60.5q35 53 54 92t28 80q4 16 6 31.5t2 29.5q0 47 -18.5 82t-55.5 64l-59 -150q-25 -63 -43.5 -109.5t-32.5 -78.5q-10 -10 -29 -19q-31 -20 -41 -31q0 33 -16 72t-41 68q-16 -41 -26.5 -75t-20.5 -52q-2 -2 -7 -4t-10 -7 q-23 -12 -41 -24t-45 -35q14 31 24.5 58.5t18.5 56.5q10 29 21.5 62.5t24.5 76.5q-23 14 -48.5 27.5t-60.5 23.5q-33 14 -62.5 19.5t-54.5 5.5q-109 0 -108 47q0 16 15 36.5t39 40t53.5 35t58.5 23.5l14 4q43 12 77 21.5t62.5 13.5t59 8t65.5 6q18 51 47 126t59.5 153 t60.5 150.5t50 119.5q23 53 45.5 105.5t42.5 99.5q-326 -47 -551 -142.5t-360 -222.5q-133 -127 -190.5 -271t-57.5 -302v-4zM645 627q0 -25 14.5 -43.5t32.5 -18.5q106 0 199 -53l22 63q18 53 33 95t25 73h-8t-15 2h-26q-57 0 -121 -6q-82 -10 -119 -42.5t-37 -69.5z M858 160q53 -4 93 -7t85 -10q10 -2 18.5 -4t18.5 -2q8 14 17 19q16 18 25 30.5t13 16.5q4 8 10.5 15t12.5 18q-43 -18 -106.5 -34t-141.5 -34q-16 -2 -27.5 -4t-17.5 -4zM954 465q53 -45 66 -92q12 33 24 73q10 18 20.5 47t27.5 68q23 59 35 91t16 48q-37 23 -90 33 q0 -6 -25 -61zM1065 774q29 -4 53.5 -9t46.5 -15q18 47 35 87t33 76l67 156q41 92 70 159.5t57 127.5q27 10 51.5 19t73.5 38q-35 -68 -82 -161t-92 -191q-47 -98 -87 -186.5t-66 -147.5q57 -29 97 -64.5t56 -95.5q2 -6 2 -14v-16q0 -41 -17 -85.5t-48 -101.5 q131 72 217 131q92 66 166 150q76 86 121 206.5t45 280.5q0 90 -29 168t-83 134.5t-132 89t-174 32.5q-14 0 -28.5 -1t-28.5 -3q-43 -92 -90.5 -201.5t-92.5 -218.5z" />
<glyph unicode="&#xaf;" horiz-adv-x="1478" d="M51 1417l234 -86l932 -41l53 62l104 8l51 57v62l-49 45h-159l-218 84q-35 -2 -68.5 -4t-68.5 -2q-160 0 -313 24.5t-307 71.5l-131 -90z" />
<glyph unicode="&#xb0;" horiz-adv-x="514" d="M0 776l35 -108l110 -33l140 55q217 156 229 414l-37 65l-110 11l-156 -27q-209 -121 -211 -377zM195 958l24 27l105 -24l12 -64l-37 -51h-49l-49 39z" />
<glyph unicode="&#xb1;" horiz-adv-x="960" d="M0 -145l147 -17l136 17l53 32l485 -32l123 57l17 47l-74 45h-154l-57 37l-232 16q51 88 77 181.5t30 191.5l55 72l53 4l33 49l80 39l-8 65l-178 -8l-35 25l-21 258l-59 20l-137 -123l-10 -155l-105 -8l-119 -117l31 -62l154 -18l39 -41v-367l-39 -38l-164 -9l-117 -104z " />
<glyph unicode="&#xb2;" horiz-adv-x="587" d="M0 725l25 -33h133l338 41l73 76l19 78l-269 39l-8 32l58 58l45 153l-62 70l-73 4l-107 -37l-88 -90v-67l104 18l37 -23v-28l-190 -185z" />
<glyph unicode="&#xb3;" horiz-adv-x="577" d="M0 748l41 -52l209 -37l213 105l115 133v57l-23 74l-49 49v39l49 39v109l-27 30l-120 9l-162 -134l-35 -55l68 -6l20 -43l-74 -61l86 -82l-118 -52l-130 11l-6 -43l-57 -47v-43z" />
<glyph unicode="&#xb4;" horiz-adv-x="348" d="M47 502l35 -21q227 129 227 400l-26 147l-60 16l-151 -157q18 -78 18 -154q0 -115 -43 -231z" />
<glyph unicode="&#xb6;" horiz-adv-x="991" d="M4 594l59 -139q111 -102 242 -103q84 0 176 43l37 -22q20 -74 21 -154q0 -104 -37 -205q18 -109 18 -211q0 -111 -18 -211l61 -18l72 70q12 72 20.5 141.5t8.5 140.5q0 25 -1 49.5t-4 49.5l25 47l-16 129l34 82l-12 106q37 147 37 295q0 61 -5 123.5t-20 126.5l-67 20 l-129 -143l12 -217l-37 -33h-147l-74 25q-109 78 -108 178q0 78 59 162l68 28q121 193 372 211l158 -73l88 92v57l-84 70l-100 4l-168 -23q-186 -72 -319.5 -200.5t-221.5 -313.5v-184zM750 -145l32 -29h64l55 37l53 88q-4 29 -5 58.5t-1 60.5q0 162 43 325q-18 104 -18 207 q0 104 18 209l-37 107l-67 16l-78 -53l-59 -90q18 -117 28 -235t10 -234q0 -119 -10 -235t-28 -232z" />
<glyph unicode="&#xb7;" horiz-adv-x="401" d="M47 758l64 -68l114 -6l107 74l26 98l-79 78l-60 4q-170 -29 -172 -180z" />
<glyph unicode="&#xb8;" horiz-adv-x="675" d="M0 -551l41 -63l65 -11l101 47l188 27q219 90 281 315l-74 117l-106 19l-52 59l-36 98l69 125l-63 19l-168 -152l-27 -123l-31 -39q6 -100 54.5 -153t140.5 -68l18 -35q-78 -41 -162.5 -58t-175.5 -15l-59 -47z" />
<glyph unicode="&#xb9;" horiz-adv-x="425" d="M0 1077l49 -18l74 43h57l27 -176l112 -29l107 131l-37 178l37 160l-31 35h-61l-115 -109l-72 -28l-73 -84l-33 -11z" />
<glyph unicode="&#xba;" horiz-adv-x="606" d="M0 967q29 -53 71 -82t93 -29q35 0 67 8l138 56q111 66 172 164t65 227l-55 80l-107 20l-225 -27q-219 -86 -219 -294v-123zM225 1180l25 28l49 6l70 -6l39 -75l-56 -74h-84l-37 57z" />
<glyph unicode="&#xbb;" horiz-adv-x="1290" d="M0 -131l63 -27l216 117q98 86 203.5 162t226.5 139l92 109v75q-55 98 -125 180.5t-162 147.5v29l-84 26l-106 -26l-64 -76v-66l74 -108l211 -209l10 -51q-203 -221 -471 -307l-80 -72zM471 -158l35 -49h45l182 174l88 29q178 53 283.5 152.5t138.5 259.5l-53 94l-82 67 l-43 115l-49 49l-8 68l-33 26h-78l-121 -77l-18 -115q59 -162 196 -252l68 -137l-51 -51l-51 -7l-2 -26q-88 -53 -174.5 -99.5t-180.5 -87.5l-86 -88z" />
<glyph unicode="&#xbc;" horiz-adv-x="1253" d="M0 -324v-59l49 -10l158 174q68 141 153.5 267t190.5 243l4 43l193 217q47 106 107 201.5t138 181.5l39 131l-74 16l-57 -39l-55 -145l-64 -59q-31 -78 -74.5 -147.5t-105.5 -129.5l-24 -80q-98 -78 -165 -174t-106 -213l-45 -22zM145 926q0 -16 6.5 -39t13.5 -54.5 t13 -74.5t6 -103v-30t-2 -33l-2 -35q0 -82 27 -160l186 107q-4 27 -6 46t-2 36q0 29 4 49t10.5 45t10.5 56.5t4 82.5v273l-183 -84q-51 -23 -68.5 -40.5t-17.5 -41.5zM489 -197l74 -71h80l166 61l55 -12l21 -359l84 -16q70 59 105.5 134t35.5 167q0 29 -3 59.5t-11 61.5 l123 109l34 120l-157 17v329l-64 19l-112 -103v-280q-68 -111 -193 -111h-22q-10 0 -21 2v54l88 174l221 305l-22 55h-51q-113 -90 -162 -223l-90 -84q-29 -143 -138 -246z" />
<glyph unicode="&#xbd;" horiz-adv-x="1179" d="M0 -246v-53l49 -8q123 80 182 213q66 29 105 79t53 115l174 168l6 47l318 361l31 72l98 104l26 90l23 2v49l-49 11l-131 -117l-39 -96l-121 -132l-23 -65l-63 -43q-90 -172 -238 -291l-6 -41q-123 -98 -220 -215t-175 -250zM100 887l47 -111l15 -319l69 -17 q184 94 185 287q0 92 -43 207l-21 98l-37 41l-55 4l-139 -108zM528 -383v-47l35 -51h96l66 35h356l66 57l33 110l-131 68l-240 -39l-45 19q322 150 321 430q0 16 -1 30.5t-3 30.5v8l-65 51l-129 23l-74 -18l-104 -113v-35l39 -31l79 -8l58 -37v-61q-238 -170 -357 -422z" />
<glyph unicode="&#xbe;" horiz-adv-x="1503" d="M0 283l74 -47h114q166 10 300.5 81.5t236.5 200.5l23 117l-109 113v34l70 99l-13 77l-78 70l-141 4l-143 -112l-27 -64l17 -29l116 -26v-37l-98 -74v-74l47 -65l82 -21l6 -41q-47 -16 -94 -25t-96 -9q-72 0 -156 22l-115 -110zM16 -414l47 -12l289 303q84 164 250 268 l4 31l203 191v22l135 100l25 41q258 219 461 498l34 127l-73 25l-88 -76q-111 -221 -266.5 -400.5t-360.5 -320.5l-8 -31l-191 -180q-88 -170 -252 -272q-35 -72 -85 -132.5t-115 -103.5zM723 -260l53 -59l305 40l35 -223l64 -35l145 74l23 232l137 143l18 63l-18 25l-137 4 l-21 320l-84 18l-39 -18l15 45l-23 32h-57l-107 -94q-72 -207 -231 -356zM934 -88l139 194l43 -18l4 -63l-55 -125l-121 -19z" />
<glyph unicode="&#xbf;" horiz-adv-x="776" d="M-2 -309l2 -47l100 -86l179 -21q311 8 497 252v39l-43 14l-57 -49q-115 -61 -223 -61q-129 0 -242 80l-16 82q57 72 131.5 122t169.5 78l163 168l31 6l74 88l12 101q-33 92 -83 165.5t-115 135.5h-60l-135 -123l-10 -66l145 -200l19 -78l-66 -82l-131 -64 q-174 -66 -258 -180.5t-84 -273.5zM422 1004l41 -35h67l64 47l65 100l-41 49l-63 4l-109 -73z" />
<glyph unicode="&#xc0;" horiz-adv-x="1624" d="M-160 90l51 -14l56 55l528 135h156l31 -43q-47 -123 -148 -198l-96 -189l12 -61l62 -23l145 121l39 162l123 196l133 -20q76 -82 171 -133t204 -76h8q211 0 266 180l-35 148q2 23 3 45t1 45q0 193 -75 375q-35 147 -156 147l-25 -4q-41 -51 -87 -91t-105 -63 q-113 -180 -271 -309l-364 -29l-82 -38l-115 -7l-73 -49l-226 -57l-123 -102zM831 1434l189 -170l24 -138h58l104 74l8 43l41 45v109q-29 57 -74 102t-100 78h-88l-123 -70zM975 481l110 162l111 90l57 -22q78 -152 78 -318q0 -18 -1 -36.5t-3 -37.5l-33 -24 q-135 94 -290 131z" />
<glyph unicode="&#xc1;" horiz-adv-x="1329" d="M-33 100l49 -14q211 106 441 107h14l-25 -70l-192 -195l8 -55h72q92 72 173 157t152 181h15q182 0 280 -176l105 -88l74 20q131 43 131 158v18l-31 76q10 47 15 91t5 87q0 225 -133 418h-145l-178 -190l-39 -99l-121 -108q-367 -6 -662 -221zM813 442l25 72l88 104h45 l20 -30l29 -178l-45 -37h-70l-84 37zM813 1028l74 -49l106 88q55 287 310 379l49 61v43l-58 27l-161 -78q-129 -90 -208 -207.5t-112 -263.5z" />
<glyph unicode="&#xc2;" horiz-adv-x="1384" d="M-20 -121l49 -22l80 53q115 250 362 250h418l147 -74q55 -72 127 -72q45 0 107 39q92 63 92 158v22q-132 420 -449 715h-57q-78 -51 -135 -122.5t-96 -159.5l-82 -62l-37 -78q-102 -221 -309 -221h-15q-35 -35 -61.5 -72.5t-46.5 -85.5l32 -88l-120 -129zM442 1047l41 -3 l348 304h25l33 -56l65 -207h33l25 45q133 31 133 146v4l-27 43q2 16 3 33.5t1 34.5q0 125 -78 231l-57 2l-188 -188l-97 -50l-59 -79l-117 -82l-45 -99l-35 -22zM514 393l227 312h43q78 -74 132.5 -156t89.5 -180l-31 -21q-59 18 -117.5 26.5t-118.5 8.5q-51 0 -103 -5 t-106 -20z" />
<glyph unicode="&#xc3;" horiz-adv-x="1341" d="M0 -305l41 -19q307 215 510 512l207 -51l88 -65l96 -25l105 -88l108 16l88 97l27 73q-29 59 -43.5 126t-14.5 135q0 47 7 96l-37 35q35 82 35 153q0 123 -97 236l-73 28q-158 -106 -284 -242.5t-218 -308.5l-250 11l-59 -41l-56 -123l39 -39l150 -23l14 -36l-221 -271 q-162 -43 -162 -186zM489 1147l25 -27h72l127 99l-4 67l16 17l139 -5l62 -79l123 -56q266 8 440 217l14 50l-63 18l-115 -82l-33 -2q-152 0 -243 139l-185 25q-102 -84 -225 -98l-61 -82l-50 -23l-32 -68zM684 408l242 305l49 -23l41 -366l-47 -25l-256 68z" />
<glyph unicode="&#xc4;" horiz-adv-x="1574" d="M0 283l72 -21l174 78l73 2l21 27h90l41 -27l145 14l68 -32v-33l-82 -82l-8 -57q-236 -96 -287 -326l49 -21l416 457q10 4 23 4h24q125 0 197 -104l49 -4l309 -207l105 16l37 37v215q6 33 8 64.5t2 62.5q0 268 -195 445l-149 20l-135 -98l-113 -150l-82 -51 q-135 43 -266 43q-98 0 -193.5 -25.5t-191.5 -72.5h-80l-117 -105zM975 496l98 106l74 41l43 -4q63 -57 98 -131t39 -166l-57 -27l-285 142zM1139 944l51 -2l162 166l47 100q135 72 145 246l-65 19l-88 -82q-39 -100 -98.5 -184.5t-137.5 -157.5zM1315 909l59 -12l162 195 l37 98q106 43 106 149v21l-45 14l-98 -82l-82 -145q-139 -86 -139 -229v-9z" />
<glyph unicode="&#xc5;" horiz-adv-x="1110" d="M0 -84l72 -18l100 98l61 176l50 47q43 6 82 6q74 0 127 -30.5t94 -94.5l39 -10l114 -88l150 -35l123 58l45 98v123q2 27 2 49v51q0 176 -38 346t-116 330l-53 43h-41q-221 -162 -375.5 -362.5t-253.5 -440.5l-98 -115l-27 -88l-53 -59zM440 471l299 373l33 -23l6 -88 l33 -37l49 -385l-45 -16l-137 88l-127 6l-35 29l-72 8zM565 1329l70 -55l104 -21l111 39q217 113 217 342v23l-109 117l-163 10l-105 -55l-24 -60l-80 -76zM766 1544l35 31l67 -6l37 -60l-104 -18z" />
<glyph unicode="&#xc6;" horiz-adv-x="2099" d="M-33 -209l45 -22l150 129q82 145 211 229h293l96 -51h82l104 -88q35 -10 69 -15.5t66 -5.5q127 0 242 74l338 33l37 26h311l117 74v37q-88 61 -191 61q-86 0 -170 -41l-84 11q-78 -29 -153.5 -41.5t-149.5 -12.5q-98 0 -204 23l-9 86l25 45q104 45 211.5 64.5t220.5 19.5 h23l36 -41l52 -6l106 88l4 102l-37 35l-145 -16q-31 10 -61.5 13t-61.5 3q-123 0 -233 -67h-140l-49 67l-8 105l66 49q12 -4 22 -4h27q119 0 225 59q23 -4 41 -4h41q86 0 156.5 30.5t128.5 98.5v66l-27 24h-78q-244 -80 -483 -80q-47 0 -93 4t-94 9l-69 43l-55 -19l-9 -31 q-174 -111 -274 -295l-221 -305l-207 -73q-109 -74 -109 -172q0 -23 5.5 -45.5t15.5 -47.5l-123 -135zM545 379l178 209l25 63l88 82l32 -20l58 -271l-27 -34l10 -84l-57 -5q-96 39 -209 39q-47 0 -92 -6z" />
<glyph unicode="&#xc7;" horiz-adv-x="978" d="M-33 -602l66 -57l229 -9l256 33l195 146v26q0 211 -211 332l-31 72l80 79l186 64l54 61l143 27l108 88l19 74q-14 2 -27.5 4t-25.5 2q-143 0 -260 -123l-125 -22h-267l-88 71q-4 23 -6 45.5t-2 44.5q0 137 64 275l84 71l198 -36l90 39l-12 145l-78 55l-110 8l-68 -26 q-307 -154 -315 -445l-25 -20q-25 -111 -25 -217q0 -27 1.5 -51.5t5.5 -51.5l77 -98l113 -45q-29 -70 -29 -123q0 -131 152 -205l25 -94l-146 -18l-61 35l-25 63l-57 10q-145 -68 -152 -229z" />
<glyph unicode="&#xc8;" horiz-adv-x="1028" d="M12 322l94 -56l-53 -153v-236l56 -39h71l39 31l92 -12l41 34l174 39l62 54l160 55l24 47l49 2l88 76l9 78l-48 18q-98 -59 -202.5 -102t-221.5 -70l-63 -49h-113l-34 24l-13 58l74 219l104 18l56 37h39q244 0 430 170l-17 53l-82 13l-88 -51l-354 -19l41 176l37 45 l162 27q123 59 245 59q82 0 162 -24l76 69l22 80l-51 66h-110l-142 -39q-47 10 -87 16t-81 6q-242 0 -389 -192v-92l-51 -80l-45 -172l-139 -88zM311 1516l47 -62q66 -18 121.5 -51t106.5 -80l82 -20l80 -70h34l144 37l43 57v72q-109 82 -221.5 153.5t-233.5 130.5l-74 11 l-116 -84z" />
<glyph unicode="&#xc9;" horiz-adv-x="1130" d="M41 334l102 -72q-4 -29 -6 -55.5t-2 -54.5q0 -109 29 -224l47 -34l145 -21l232 55l125 84l59 4l154 146l-8 49h-58l-63 -64l-158 -63q-31 -14 -58.5 -19.5t-54.5 -5.5q-100 0 -159 88v172l139 70l110 6l123 82l121 25l172 104l-16 60h-96q-117 -70 -236 -102t-246 -32 h-45l-20 19v139l28 72q152 61 305.5 91t311.5 30q55 0 109.5 -4.5t109.5 -10.5q94 27 94 123v15q0 8 -2 16l-194 39l-265 -25q-90 -43 -194 -43q-16 0 -30.5 1t-31.5 3h-8l-129 -41h-18q-180 0 -295 -145q29 -80 29 -147q0 -166 -144 -281zM748 1241l53 -16 q145 141 312 242.5t357 170.5l17 78l-57 4l-89 -24l-90 -70l-71 -4l-133 -102l-62 -19l-221 -178z" />
<glyph unicode="&#xca;" horiz-adv-x="1110" d="M0 324l25 -29h81l25 -27v-178l57 -143q53 -23 109.5 -32t116.5 -9q23 0 48 2t50 6l260 82l39 39q168 37 211 188l-74 23l-96 -72q-139 -88 -291 -88q-96 0 -190 37l-37 70l14 149l41 41q160 29 308.5 82t289.5 137l74 82v29l-64 12l-145 -66l-86 -8l-70 -45 q-166 -4 -313 -80l-49 60l18 186l56 37l81 4q205 106 424 107q90 0 189 -19l49 41l16 90l-106 49h-189l-51 -24q-121 0 -232.5 -30t-221.5 -85q-233 -68 -234 -262q0 -51 14 -102l25 -103l-147 -90zM395 1253h45l56 27l127 150l61 40l82 -34l94 -162l82 6l80 68l8 114 q-49 201 -258 201q-119 -66 -215 -154t-162 -202v-54z" />
<glyph unicode="&#xcb;" horiz-adv-x="1118" d="M12 219l74 -18q-41 -82 -41 -178v-35q0 -18 4 -37l57 -39l148 -18l203 36l39 35q260 16 477 180l57 72l-8 29l-49 14l-307 -147h-97l-88 -29h-186l-41 61l41 105l39 33q362 49 639 290l-15 31l-61 -4q-57 -37 -116.5 -55.5t-121.5 -26.5l-22 -22l-236 -54l-32 50l88 204 q240 100 497 101q57 0 113.5 -5.5t116.5 -15.5l57 49l16 74l-65 57l-135 5l-25 -19q-37 6 -72.5 10t-70.5 4q-137 0 -275 -57l-26 -31q-254 -18 -408 -215l13 -104l-31 -53l-4 -101l-123 -88zM551 1219l151 -117l134 88l10 53l-55 109l-95 24l-145 -98v-59zM934 1219l82 -86 l65 -23l72 55l51 2l23 97l-80 104l-68 8l-125 -82z" />
<glyph unicode="&#xcc;" horiz-adv-x="606" d="M0 -444q66 -166 246 -166h24q14 0 29 4l129 90q76 154 111.5 313.5t35.5 327.5q0 55 -4 110.5t-10 112.5l-45 135l-39 35h-55l-160 -104v-99q35 -78 52.5 -151.5t17.5 -151.5q0 -195 -113 -401h-31l-51 90h-80l-53 -72zM74 1184l108 -164q66 -31 123 -77t98 -107l60 -9 l127 41l16 64q-47 94 -113.5 169t-158.5 138l-51 100l-64 23l-135 -74z" />
<glyph unicode="&#xcd;" horiz-adv-x="614" d="M0 -831v-66l35 -29h86q111 76 178.5 178.5t101.5 233.5l25 14l20 148l-16 319l-47 82q8 35 8 76q0 129 -106 223h-39l-125 -137q-10 -31 -10 -53q0 -86 108 -125q27 -115 38 -226.5t11 -226.5q0 -47 -2 -91t-6 -91l-88 -139l-147 -58zM158 616l43 -22l67 45 q47 129 158 213l16 66q86 53 129 129.5t43 171.5v8l-45 10l-88 -68l-4 -49q-98 -115 -177 -241.5t-142 -262.5z" />
<glyph unicode="&#xce;" horiz-adv-x="624" d="M0 586l63 -23l109 96l39 89l72 63h59l121 -225l143 73l19 113q-12 139 -111 244l-125 26q-209 -147 -364 -346zM262 -770v-31l45 -12l119 92l20 170q66 145 96.5 296t30.5 306v74l-77 301l-52 31h-75l-70 -68l-4 -55q100 -231 100 -459q0 -197 -71 -393l-25 -10 q-23 -59 -30 -120t-7 -122z" />
<glyph unicode="&#xcf;" horiz-adv-x="702" d="M0 852l72 -25l116 91l19 67l-49 19q-47 -14 -84 -41t-70 -62zM236 -506v-45l88 -12q244 150 243 426q0 31 -2 64.5t-10 68.5l-18 37l14 125l-23 14l-47 268l-37 56h-36l-162 -144q35 -74 60.5 -160t43 -176t25.5 -180t8 -172v-20l-68 -90zM463 739l55 -30l107 49l77 112 l-18 31l-45 8l-121 -78z" />
<glyph unicode="&#xd0;" horiz-adv-x="1277" d="M0 -106q61 -115 170 -115h16t15 2l67 -49l99 14l63 -51l188 -19l291 93q381 215 381 602q0 68 -12 141q-41 104 -106.5 190t-155.5 158l-131 41l-58 47l-63 6l-41 37l-172 39h-150l-194 -61l-84 -88h-23l-16 -80l78 -68l33 -4q119 0 188 107l211 -15q295 -106 479 -364 q12 -55 17.5 -109.5t5.5 -109.5t-5.5 -109.5t-17.5 -108.5q-129 -156 -297 -155q-29 0 -57.5 5t-59.5 11v35l66 68v122l23 82l137 62l35 45v45l-35 27h-127l-49 61l-84 16l-136 -104l-8 -61l-24 -19l-101 8q-279 -10 -282 -243l-70 -82zM211 49l88 53l123 19h35l45 -49v-146 l-45 -26l-226 104z" />
<glyph unicode="&#xd1;" horiz-adv-x="1196" d="M0 -90l25 -31h63q125 37 125 150q0 20 -2 30l49 68v164l39 88q213 -31 307 -232l78 -24l162 -137l96 16l117 98q33 63 46 127t13 129q0 43 -6 85t-16 85l24 88l-16 181l49 184l-37 49h-43q-78 -37 -113.5 -93t-35.5 -128l2 -31l-41 -71v-414l-39 -21l-369 334l-6 45 l-63 56l-113 213h-133l-99 -82q18 -145 19 -285q0 -162 -21.5 -321.5t-60.5 -319.5zM236 1206h79l52 19l2 26h45l75 -141l56 -16l114 39l168 135q119 16 148 135l-57 14q-47 -43 -101.5 -74.5t-114.5 -44.5l-86 164l-145 23l-156 -105z" />
<glyph unicode="&#xd2;" horiz-adv-x="864" d="M12 94l23 -90q35 -47 81 -68.5t101 -21.5h19q8 0 18 2l221 80l162 125l25 59l63 45l74 109q2 111 73 203v114l-57 162q-137 143 -334 143h-30q-17 0 -33 -2l-187 -57l-38 -45l-46 -6l-41 -37v-51l52 -19l123 52h157q264 -49 283 -334l-121 -226q-96 -147 -242 -147 q-29 0 -57.5 5t-58.5 17l-60 82q0 283 197 514l-25 46l-84 -9l-106 -88l-129 -262zM193 1569q51 -117 126.5 -201t186.5 -141l20 -45l97 -17l104 54l23 106l-342 391l-86 6l-105 -80z" />
<glyph unicode="&#xd3;" horiz-adv-x="954" d="M-33 723h82l39 -47q-33 -92 -50.5 -185.5t-17.5 -191.5q0 -59 6.5 -122.5t22.5 -127.5q74 -182 273 -182h22q14 0 25 2q215 37 381 180q100 78 148 180.5t48 225.5v30t-2 31q-14 367 -356 469l-254 19l-123 -62l-64 -82l-151 -69zM211 322l57 380l56 109l84 25l155 -25 q209 -137 209 -379q0 -23 -2 -46.5t-6 -45.5l-51 -158q-76 -166 -267 -178q-170 47 -200 229l-27 13zM545 1221l49 -13l139 107q37 74 89 131t122 104l47 76l68 49l37 80l51 35v53l-66 17l-194 -93q-109 -287 -336 -481z" />
<glyph unicode="&#xd4;" horiz-adv-x="851" d="M4 74l80 -121l176 -39q213 55 377 201q98 88 147.5 190.5t49.5 226.5v33q0 18 -3 35l-73 127q-72 72 -152 104.5t-174 32.5q-27 0 -53 -2t-55 -6l-99 -6l-141 -88l-10 -41l49 -53v-37l-23 -13l-16 -143l-80 -145v-256zM176 236l19 174l51 82l16 88l53 43l111 -23l37 62 l162 -72l43 -152q-25 -233 -228 -352l-121 -10l-108 59zM188 1133l31 -25q199 14 258 231l60 37l57 -106l8 -103l66 -88l45 -2q139 31 139 160v18l-31 39l-63 222l-49 47l-115 10q-72 -27 -132.5 -68t-109.5 -102l-10 -35l-117 -125z" />
<glyph unicode="&#xd5;" horiz-adv-x="933" d="M-4 59q84 -199 276 -198q16 0 31.5 1t32.5 3l141 51q369 211 436 621l-32 204q-102 270 -377 271h-8l-56 -33l-73 14q-174 -66 -236 -252l-31 -8l-75 -233l16 -74l-31 -70l-6 -4zM180 1239l21 -25h45l155 154q109 -55 168 -154l115 -8l201 123l49 117l-158 -31l-188 174 l-82 6q-137 -37 -217 -126t-109 -230zM188 506l43 182l37 53l43 17l31 -21l27 -69l39 -15l69 52l41 108q211 -6 242 -225q6 -49 6 -94q0 -131 -56.5 -235.5t-164.5 -184.5h-172l-88 16l-54 84z" />
<glyph unicode="&#xd6;" horiz-adv-x="942" d="M0 137q18 -231 272 -231l47 4l259 90q182 63 270 189t88 303v24q0 14 -2 29l-88 188q-129 168 -338 168h-27l-186 -63l-115 -105h-33l-106 -117v-53l59 -12l13 -39l-29 -31l-43 -108zM188 334q33 199 181 342l77 20l220 -57l116 -162l27 -121l-37 -37l-39 -108 q-150 -127 -352 -127q-16 0 -30.5 1t-31.5 3h-8l-100 57zM260 1104l25 -31l49 4l137 119l147 195l177 153l18 74l-74 4q-203 -90 -295 -291l-165 -166zM367 985l16 -59h39q182 139 287 342l155 143l37 76l70 35l20 55l-65 18l-92 -59q-31 -47 -77 -102.5t-95.5 -106.5 t-95.5 -94t-77 -68l-75 -137z" />
<glyph unicode="&#xd7;" horiz-adv-x="651" d="M0 446l158 -141l-11 -37l-106 -94v-55h80l110 92h52l112 -80l111 -31l129 72l16 64l-162 165v41l74 64l31 74l-57 8l-97 -82l-84 -17l-161 129l-64 7l-127 -80z" />
<glyph unicode="&#xd8;" horiz-adv-x="1169" d="M0 176l16 -18l115 14l76 -207v-65l-35 -23l-109 -211l43 -39l101 74l4 45l49 23l74 118l252 25q41 45 93 75.5t118 45.5l194 200l105 175q63 102 63 198q0 137 -131 254v58l162 174l49 24v53l-43 11l-154 -99l-133 -161l-217 -35q-78 -55 -158.5 -93t-166.5 -65 l-148 -158l-106 -213l-88 -73zM299 279l20 36l-8 140q61 164 217 184l35 45h105l34 43l19 -14l-29 -4l-26 -103l-121 -143q-45 -160 -172 -281h-37zM457 94v43l73 123l64 39q51 117 119.5 216t156.5 187l56 -18l35 -61l10 -193l-90 -194q-129 -170 -326 -170q-16 0 -32.5 2 t-33.5 4z" />
<glyph unicode="&#xd9;" horiz-adv-x="1107" d="M20 555l74 -117l19 -80q-14 -57 -20.5 -113.5t-6.5 -111.5q0 -63 8 -125.5t27 -126.5l43 -33h119l231 123l215 201q2 -12 4 -19.5t4 -12.5t4 -12t7 -19l96 -113l90 -10l127 43l69 106q-164 55 -163 223q0 37 6 80l43 312l-25 28l-65 6l-142 -96q-29 -92 -45 -172 t-16 -172v-41q0 -20 2 -43l-266 -207l-88 -37l-31 37v508l-107 164l-61 2l-152 -109v-63zM94 1294l277 -250l161 -32l70 49l4 74l-20 49l-103 67q-43 174 -217 250l-153 -100z" />
<glyph unicode="&#xda;" horiz-adv-x="1107" d="M-49 348q0 -55 11 -116.5t38 -131.5v-10q0 -125 100 -203h88q332 35 496 322h39l59 -195l88 -55l172 25l66 65v57l-86 56l-51 129l45 375l-31 47l-76 10l-127 -84l-80 -231q-47 -133 -137 -219.5t-213 -139.5l-41 8l-49 56l-31 123q39 117 39 239q0 94 -24 191l-74 18 q-221 -104 -221 -336zM471 885l59 -15l88 56l7 32l84 70l24 68l119 100l45 90l96 98l11 64l-78 6l-129 -80q-53 -117 -122 -210t-161 -171z" />
<glyph unicode="&#xdb;" horiz-adv-x="1302" d="M12 74l78 -62l127 29l213 156l160 172l28 61l44 10q-12 -68 -13 -123q0 -281 264 -364l115 -16q221 0 285 206l-58 15l-36 -39h-170q-147 172 -148 383q0 76 23 166l82 290l-62 17l-168 -125l-100 -225l-150 -162l-26 -70l-33 -8l-170 -174h-43l-12 51l20 8l-8 187l41 69 l35 412l-119 20l-18 -34q-141 -35 -142 -179v-18t2 -18zM297 1401l45 -17l125 101h33l90 -279l78 -6l141 94v90l-88 267l-68 59l-49 6l-194 -129l-2 -37l-84 -61z" />
<glyph unicode="&#xdc;" horiz-adv-x="1206" d="M39 1022q174 -154 174 -385q0 -29 -2 -57.5t-6 -61.5q-92 -207 -92 -422q0 -59 7 -119.5t19 -121.5l78 -13q123 37 202 112t113 191l68 37l23 86l88 97l43 -21l24 -238l105 -102q123 0 204.5 69.5t129.5 182.5l-5 98l-129 -118h-39l-45 38q-43 184 -43 365q0 203 56 405 l-17 27l-57 8l-139 -196l-45 -338l-117 -131l-6 -43l-119 -152l-8 -51l-119 -94l-82 4q-10 53 -15 107.5t-5 107.5t5 104.5t15 104.5q41 86 63.5 172t22.5 178v33q0 16 -4 33v14q0 104 -46 162.5t-134 64.5l-121 -41l-37 -39zM496 1145l41 -6l81 67q72 156 172.5 286 t225.5 239l16 73l-57 25q-262 -250 -445 -559zM659 1118l54 -16l69 63q133 328 426 531l43 88l-75 24q-311 -252 -500 -608z" />
<glyph unicode="&#xdd;" horiz-adv-x="839" d="M0 1032q20 -49 32.5 -102t12.5 -107q0 -16 -2 -33.5t-6 -35.5l-2 -6v-15q35 -236 260 -287q-10 -59 -17.5 -120.5t-7.5 -120.5q0 -225 82 -438l56 -15l88 39l34 49v219l-28 50l26 133l-26 43l-21 207l252 176l43 8l133 123l95 207l40 43v36l-28 33q-131 -25 -131 -164 l-195 -217l-172 -86h-110q-186 125 -187 336q0 76 25 168l-39 51l-62 8l-141 -106zM563 1485l55 -15l107 89l131 225l64 24q78 129 200 195l19 61l-58 21q-152 -100 -276.5 -225t-218.5 -279z" />
<glyph unicode="&#xde;" horiz-adv-x="749" d="M12 86l62 -98l-58 -518l19 -50l55 -20l127 125l45 495q303 41 479 271l21 119l-57 102q-127 104 -283 104q-25 0 -53.5 -3t-57.5 -9l-30 31q51 205 51 422q0 43 -2 84t-6 84l-43 73l-45 9l-76 -50l-74 -94q72 -180 72 -362q0 -55 -7.5 -111.5t-19.5 -116.5l-119 -151 l58 -107l4 -98l-62 -82v-49zM262 291l19 57l49 37l127 -27l69 -77l-96 -56l-149 -8z" />
<glyph unicode="&#xdf;" horiz-adv-x="1056" d="M-41 262q0 -18 2 -30.5t10 -12.5q16 0 30.5 11.5t28 25.5t27 29.5t29.5 25.5q8 -31 10 -72.5t2 -88.5v-101q0 -66 -4 -108.5t-4 -90.5v-47q0 -25 -2 -49q-41 -104 -64.5 -208.5t-23.5 -213.5q0 -31 2 -60.5t6 -59.5q20 -14 37 -15q16 0 28.5 11.5t22.5 27.5t19.5 33.5 t21.5 30.5q-2 16 -2 30v29q0 59 12.5 118.5t40.5 114.5q-2 16 -2 35v33q0 92 18.5 179t53.5 173q-25 125 -25 246q0 143 33 274q47 182 160 292t301 151l12 -66l-55 -88q-66 -35 -116 -86t-91 -112q-4 -16 -7 -28.5t-3 -27.5q0 -47 26.5 -79.5t66.5 -54t88 -33t91 -15.5 q10 -14 25.5 -26.5t31 -26t27 -27.5t11.5 -33q0 -10 -7 -24q-104 -113 -247 -113q-39 0 -72 8l-49 101h-39q-29 -20 -55.5 -42t-49.5 -44q-12 -41 -12 -80q0 -41 12 -80q39 -35 83 -46t91 -11t91.5 16t74.5 63h11q53 0 95 29t83 53q104 68 157.5 149t53.5 181q-20 20 -47 45 t-54.5 45.5t-56.5 33.5t-53 13l-189 90q31 51 74 100.5t83 98.5t67.5 102.5t27.5 116.5q0 31 -8 62l-39 32l-82 11l-51 -41q-51 0 -93 -21.5t-79 -52.5t-73 -64.5t-74 -60.5l-11 -33q-51 -47 -99 -94t-60 -119q-27 -12 -43.5 -28.5t-26.5 -35t-18.5 -41t-16.5 -48.5 q-27 -33 -44 -59.5t-33.5 -52t-37 -49.5t-53.5 -50q-6 -31 -6 -70z" />
<glyph unicode="&#xe0;" horiz-adv-x="954" d="M12 109l47 -99l115 -18q127 68 199 194h33l73 -194l88 -55h58q258 43 346 309l-15 110l-125 -170l-110 -28l-86 151q20 61 30.5 117.5t10.5 110.5q0 238 -211 383l-96 2l-70 -41q-141 -154 -208.5 -330t-76.5 -379zM131 1399q143 -246 399 -377h64l82 43l26 104 q-86 129 -184 233.5t-219 190.5h-53l-115 -131v-63zM207 260v137l41 197l76 106l94 -57l24 -82h-73l-88 -104l14 -211l-66 -25z" />
<glyph unicode="&#xe1;" horiz-adv-x="800" d="M12 76l41 -105q45 -16 74 -16q94 0 143 121l84 59q18 -92 68.5 -141t140.5 -53q23 2 52.5 32.5t62.5 73.5t63.5 92t57.5 90q4 6 8 13.5t8 13.5l-4 100q-20 -27 -47 -53.5t-53.5 -48t-51 -35.5t-41.5 -14h-8t-6 4q-20 66 -29.5 132.5t-9.5 133.5q0 41 3 81t12 83l-54 88 l-84 21l-4 47l361 315q201 53 250 221l-62 25q-186 -88 -335.5 -215t-272.5 -291l-25 -102l-59 -25q-145 -125 -214 -272.5t-69 -327.5v-47zM164 260q8 113 53 199t131 141l70 -22l20 -62l-80 -94v-205l-141 -65l-37 41z" />
<glyph unicode="&#xe2;" horiz-adv-x="815" d="M-72 748l49 -21l58 27l282 262l52 6l32 -25l25 -77l111 -107l67 8l74 60l27 104l-93 131l-47 158l-86 24l-225 -225q-195 -115 -326 -289v-36zM12 29l29 -54l94 -16l127 74l62 80l45 -19l73 -96l131 -23l193 127l8 33l41 107l31 45l-31 69l-94 -135l-90 -4l-37 49v340 l-57 53l-111 7l-109 -60q-156 -111 -230.5 -254t-74.5 -323zM180 225l33 109l123 149l65 -24l5 -64l-52 -65v-80l-59 -68l-82 -20z" />
<glyph unicode="&#xe3;" horiz-adv-x="937" d="M-2 819l2 -35l63 -18l95 78l22 125l27 10l127 -119q16 -2 33.5 -3t33.5 -1q225 0 375 205v49h-84l-86 -43l-78 -6l-133 123l-96 8l-141 -98q-160 -109 -160 -275zM84 35l53 -74l43 -14l139 67l125 -12l62 70h31l106 -111l82 -14l139 67l74 105l-29 28l-96 27 q-45 39 -81 89t-64 106q16 35 24 67.5t8 63.5q0 100 -94 166l-92 8l-70 -25q-158 -119 -245.5 -272.5t-114.5 -341.5zM268 182l39 154l107 123l49 -31l18 -113l-98 -133l-84 -47z" />
<glyph unicode="&#xe4;" horiz-adv-x="819" d="M20 102q0 -23 5 -45l38 -69q10 -2 21 -2h22q61 0 130 28.5t112 87.5l21 -18q14 -31 25.5 -59.5t25.5 -50t35.5 -34t58.5 -12.5q18 0 29 2q27 18 50 31.5t43.5 28t39 33t35.5 49.5q27 33 67.5 91t73.5 134l-33 57q-31 -33 -53.5 -68.5t-44 -64t-44 -48t-50.5 -21.5 q-31 6 -49.5 32.5t-29.5 62.5t-17.5 74.5t-14.5 71.5q-35 43 -44 94.5t-9 104.5v16q0 8 2 19v10l-84 51h-39l-117 -57q-205 -205 -205 -481v-48zM156 872l30 -28q6 -6 13 -6q20 0 45.5 46t63.5 108.5t93.5 126t139.5 95.5v72l-58 17q-260 -156 -327 -431zM182 225v66l51 119 h3q35 0 43 -17.5t8 -44.5l-2 -55q0 -20 2 -27q-6 -25 -24.5 -43t-41.5 -18q-10 0 -19 4t-20 16zM283 795q2 -18 2 -39q0 -20 20 -21q10 0 17 2l94 58q53 174 198 297q176 14 177 186l-76 16q-63 -25 -111.5 -66.5t-89.5 -93t-78 -105.5t-78 -105l-26 -86z" />
<glyph unicode="&#xe5;" horiz-adv-x="913" d="M0 -16l57 -58h66l53 49l86 25l107 106h32l43 -73l84 -68h97l59 35h66l135 102l28 60l-61 20l-131 -20l-55 39q-18 143 -97 254v147l-73 82h-74l-139 -82v-24l-146 -150l-6 -72l-106 -180zM119 1040q0 -12 2 -24l51 -58l127 -4l182 93q203 106 203 337l-78 95l-110 8 q-84 -80 -201 -103q-176 -119 -176 -317v-27zM172 176l39 103l39 20l18 84l66 61l35 -16v-106q-25 -170 -174 -216zM336 1180v41l90 90l70 -37v-78l-39 -33l-88 -16z" />
<glyph unicode="&#xe6;" horiz-adv-x="1390" d="M0 162l4 -31l70 -43h14q121 0 223 57q147 -211 394 -211q35 0 71.5 3.5t75.5 13.5q147 16 277.5 73.5t238.5 157.5l23 64l-48 16l-247 -110l-275 20l-20 47l119 129l18 80l37 43l29 154l40 77v109l-83 90l-91 -4l-98 -84h-39q2 16 3 33.5t1 34.5q0 174 -151 266l-115 6 l-70 -23l-122 -122l-216 -254v-88h43q104 170 263 260h45l43 -39l32 -76l-18 -33l-129 -45q-229 -174 -307 -454l-31 -33zM195 299l104 172l43 -16v-33l-57 -115l-74 -47zM618 322l33 141l125 203l51 -17v-98q0 -184 -143 -315h-25l-34 24z" />
<glyph unicode="&#xe7;" horiz-adv-x="696" d="M-61 -483l53 -47h84q51 16 98 34.5t96 18.5q29 0 60 -6q59 29 113.5 72.5t95.5 99.5l-15 90q-37 20 -71.5 43.5t-71.5 44t-76 36t-82 21.5l86 137l129 29q78 18 136.5 75.5t109.5 117.5q2 8 2 20q0 10 -8 14.5t-19 10.5l-34 16q-127 -137 -314 -137h-22q-10 0 -21 2 l-18 29l57 151q12 31 33.5 42t44.5 11l117 -14q66 23 101.5 72t45.5 116l-55 37l-25 107l-55 6q-102 -59 -189 -143t-182 -158q-4 -35 -17 -72t-27.5 -73.5t-27 -73.5t-12.5 -72t16.5 -64.5t61.5 -52.5q-37 -41 -55.5 -86t-18.5 -90q0 -72 49.5 -127t143.5 -65l41 -37 l-147 -25q-16 23 -36 37t-44 14q-16 0 -23 -2q-37 -35 -71.5 -69.5t-36.5 -89.5z" />
<glyph unicode="&#xe8;" horiz-adv-x="794" d="M-47 287l12 -66l47 15l33 -146q119 -111 277 -110q55 0 120 16l41 39l21 4q29 8 60.5 18.5t65.5 28.5t67.5 47t68.5 74l70 90l-52 57q-23 -35 -43 -58.5t-42.5 -40.5t-46 -31.5t-52.5 -30.5l-260 18l-18 55l194 144l107 180v98q-61 111 -179 111q-10 0 -22.5 -1t-26.5 -3 l-80 -41l-141 -150q-23 -25 -38 -48.5t-26.5 -47t-21.5 -48t-22 -52.5l-95 -91zM27 1145q78 -129 186.5 -189.5t253.5 -66.5l49 24l49 117l-225 146l-84 104l-109 43l-106 -84zM283 467l57 113l55 -17l27 -86l-43 -51h-64z" />
<glyph unicode="&#xe9;" horiz-adv-x="716" d="M-23 303l15 -67l31 -29v-98l88 -138l168 -41l176 41q45 12 77.5 30.5t59 45.5t50.5 60.5t50 74.5l37 78l19 51l-23 54q-63 -88 -140 -150.5t-171 -62.5q-31 0 -72 10l102 117l99 139q63 88 63 164q0 37 -14 70.5t-49 68.5l-92 18q-180 -82 -287 -250q-20 -35 -33.5 -51 t-27 -26.5t-33 -21.5t-54.5 -36zM268 324l25 77l59 105l66 -17l-8 -110l-123 -143zM397 897l74 -33l72 62q178 0 278 151v43l-82 19l-166 -74l-84 -6l-92 -105v-57z" />
<glyph unicode="&#xea;" horiz-adv-x="739" d="M-2 262l18 -166q33 -78 87.5 -112.5t132.5 -34.5q27 0 53 2t57 10l246 92l162 203v109l-289 -183l-107 25v35q143 121 193 309q4 10 4 20v23q0 90 -113 108q-68 -33 -128 -66.5t-110 -74.5t-91 -92t-68 -115zM123 772l61 -22l101 75l61 129l45 -10l74 -88h6 q162 0 209 166q-61 106 -176 182l-113 4l-155 -149zM242 354l104 160l35 -14v-43l-64 -127l-63 -35z" />
<glyph unicode="&#xeb;" horiz-adv-x="663" d="M0 53l8 -39l90 -90h131l250 90l90 105l62 61l33 56l28 63l-26 55l-41 -84q-70 -72 -140.5 -107.5t-150.5 -35.5q-45 0 -101 16v31l89 23q104 78 156 176t54 227q-39 72 -112 72q-19 0 -29 -4q-358 -201 -391 -615zM170 870l39 -39h108l74 66l4 61l-43 84h-55l-96 -84z M223 297q0 -14 10 -14q8 0 32 6t48.5 20.5t46 36t29.5 51.5q16 8 24.5 48t8.5 75q0 18 -2 31.5t-10 13.5q-18 0 -53 -43t-72 -88q-29 -39 -45.5 -78t-16.5 -59zM602 850l94 -19q143 29 144 154v19l-37 38h-41l-139 -104z" />
<glyph unicode="&#xec;" horiz-adv-x="561" d="M-160 -57l51 -13l199 164l55 -6l66 -63l131 -21l27 35l120 33l56 104l-17 25l-98 8l-61 39l-17 147l43 137l-71 19l-144 -96l-74 -230l-243 -221zM86 1028l199 -160l137 -24l92 61l14 56q-108 221 -317 221l-125 -97v-57z" />
<glyph unicode="&#xed;" horiz-adv-x="761" d="M0 -172l41 -8l258 213h49l55 -90l170 -13q59 35 111.5 77t93.5 95v50h-176l-29 30l-8 125l37 115l-16 33h-41l-142 -148l-30 -98l-348 -297zM395 580l49 -7q160 158 353 211l172 148l10 47l-80 18l-209 -112l-74 -86q-211 -31 -221 -219z" />
<glyph unicode="&#xee;" horiz-adv-x="696" d="M-94 -162l47 -33l235 244l72 -61q16 -2 29 -2h28q274 0 445 233v41l-66 19l-61 -54l-164 -16l-49 70v180l-66 33l-120 -89q-33 -129 -100.5 -237.5t-168.5 -198.5zM57 723l17 -27h57q53 29 82 68t33 96l69 78l19 59l22 9q43 -66 66.5 -135.5t32.5 -147.5l57 -57l53 -4 l109 114l10 60q-88 158 -106 340l-41 49l-66 8q-135 -88 -238.5 -203t-175.5 -254v-53z" />
<glyph unicode="&#xef;" horiz-adv-x="708" d="M0 -63v-43l41 -15l221 195l33 10l78 -45l172 18l57 70l107 55l18 64l-53 20l-109 -20l-37 37l-12 139l35 94l-49 33l-168 -127q-80 -303 -334 -485zM225 705l74 -17l145 123v41l-49 20q-49 -20 -92 -52t-78 -72v-43zM561 662l17 -27h45l155 102l37 74l-43 25 q-61 -16 -113.5 -47t-93.5 -78z" />
<glyph unicode="&#xf0;" horiz-adv-x="917" d="M-426 879q0 -12 4 -29l43 -127h109l37 43q-20 76 -21 154q0 90 29 174q125 168 301 168q43 0 90 -9.5t96 -31.5l33 -31l94 -25l117 -104l-29 -64l-178 -77l-20 -48l-68 -22l-162 -145l21 -74l73 18q39 49 89.5 93t106.5 83t115.5 71t114.5 54l17 -37v-385l-49 -2l-23 35 h-74q-238 -117 -268 -379l-29 -20v-162l52 -41l59 -16l209 57l176 162q145 195 145 420q0 43 -5 86t-15 86q27 53 38 108.5t11 112.5v31q0 16 -2 30l352 170l37 37v51h-80l-276 -118l-90 -9q-113 197 -324 209l-47 35h-283l-252 -98q-274 -131 -274 -406v-28zM393 266 l137 123l33 -22l-67 -179l-39 -43h-43z" />
<glyph unicode="&#xf1;" horiz-adv-x="897" d="M-41 418l117 -47l33 -228l51 -69l-15 -88l56 -21l129 94l78 148l55 -25q-6 -23 -6 -45q0 -113 121 -157l32 -3q205 0 299 205v41l-41 19l-77 -35l-78 4l-78 281l-49 51l-58 -17l-180 -245h-33l-24 67v201q-17 139 -146 139l-145 -145zM88 1061l47 -17l90 82h58l39 -69 l26 -137l74 -60l94 -4q158 82 262 223l23 127h-39l-78 -88l-82 -33l-53 50l-72 178l-55 43h-74l-88 -33l-166 -172z" />
<glyph unicode="&#xf2;" horiz-adv-x="661" d="M20 1264l123 -129q139 -49 246 -162l154 -25l63 45l29 109l-92 74l-11 30l-284 221l-96 23l-123 -111zM63 207l58 -187l127 -34q293 96 368 407l50 51l18 248l-84 119h-141l-176 -123l-74 -158l-107 -75zM270 270v52l60 233l59 59l88 -59l19 -80l-37 -184l-56 -82l-47 -2 z" />
<glyph unicode="&#xf3;" horiz-adv-x="624" d="M53 477l35 -84l-29 -59v-172l29 -99l64 -59h41q80 33 150.5 82t127.5 121q18 74 50 139.5t79 124.5v98l-57 170l-185 43l-77 -18l-222 -213zM242 440l65 105l72 -39l31 -154l-31 -102l-57 -55h-41l-33 36zM471 985l57 -24q59 92 136 163.5t172 118.5l32 72l-84 16 l-184 -149z" />
<glyph unicode="&#xf4;" horiz-adv-x="729" d="M12 870l17 -34h71l136 106l6 90l88 113h63q78 -59 135.5 -133t96.5 -168l112 16l74 98v39l-53 123q-111 203 -316 207q-174 -55 -279.5 -169t-150.5 -288zM53 162l33 -41l20 -121l52 -35h49l178 92q309 227 317 592l-51 64l-135 10l-115 -21l-170 -112 q-37 -119 -141 -217zM270 201v172l82 35l66 75l41 -6l22 -82l-88 -194l-39 -29h-49z" />
<glyph unicode="&#xf5;" horiz-adv-x="757" d="M12 152q39 -184 236 -185h33l202 107q250 195 250 477q0 23 -2 47.5t-6 50.5l-72 90l-90 15l-416 -211l-112 -121zM254 348l88 66l66 147l73 -10l35 -39l10 -160l-59 -133l-57 -61l-52 -6l-61 24zM354 1032l47 -16l45 16l37 -98l80 -8l148 133q29 100 82 187t131 157 l20 84l-61 22l-52 -22h-129l-139 -88l-145 -195l-8 -51l-52 -57z" />
<glyph unicode="&#xf6;" horiz-adv-x="555" d="M20 133q20 -63 64.5 -104t112.5 -45q10 0 31.5 8t45 19.5t46 23.5t38.5 22q172 156 172 369v18q0 35 -15 65t-38 56h-84l-96 37q-276 -139 -277 -469zM184 274q16 8 32.5 22.5t32 29t33 23.5t37.5 9l15 -2q39 -20 39 -65q0 -16 -2 -23l-11 -18q-20 -35 -43.5 -62.5 t-66.5 -27.5h-12q-6 0 -13 2l-28 26zM223 739l19 -16l39 10q14 43 44.5 97.5t70.5 106.5t84 92t85 56l47 43l109 111q-4 33 -26.5 40t-47.5 9h-10q-147 -76 -244 -221q-168 -139 -170 -328zM283 674q0 -39 57 -49l160 147q47 104 116.5 185t167.5 137l80 112 q-6 16 -19.5 21.5t-29.5 5.5h-16q-113 -61 -202 -150.5t-155 -210.5l-133 -143l-16 -24q-10 -20 -10 -31z" />
<glyph unicode="&#xf7;" d="M57 186l68 -67l313 -19l174 19l150 88h8q61 0 102 34.5t54 102.5l-111 27q-51 -23 -101 -33t-104 -10q-35 0 -68.5 3t-66.5 11l-266 37l-148 -129zM317 592l103 -88l47 -4l119 53l39 94l-95 131h-67l-127 -100zM389 -229l66 -54h45l67 17l95 73l6 72l-78 74l-47 14 l-148 -127z" />
<glyph unicode="&#xf8;" horiz-adv-x="954" d="M0 158l25 -37l59 -8l37 -39l10 -60l-96 -161l22 -41h43l107 88q20 -2 39.5 -4t38.5 -2q244 0 428 227l26 61q203 137 203 361q0 74 -22 159l18 37l104 9l74 133l-20 28l-54 9l-133 -80h-45q-76 59 -149 59q-76 0 -164 -61q-174 -121 -308 -270.5t-239 -332.5zM236 309 l67 51l105 -20l-74 -104zM342 459l172 205l100 45l62 -19l14 -47l-88 -106l-84 -78h-176zM373 121l340 356h28l9 -37q-37 -221 -222 -352l-114 -16z" />
<glyph unicode="&#xf9;" horiz-adv-x="886" d="M0 408l63 -56l-47 -348l41 -29l90 -16l103 66l61 8l111 88l49 -8l35 -64q35 -16 68.5 -21t66.5 -5q121 0 229 90l17 69l-35 27h-102l-41 41v207l-41 39h-33l-178 -123l-35 -105l-80 -59l-35 -72l-24 8l-21 31q70 111 70 203q0 100 -82 184l-49 6l-166 -73l-35 -39v-49z M145 1116q47 -123 136.5 -188.5t232.5 -75.5l72 35l20 57l-76 60l-34 100l-123 115l-4 24l-62 27q-94 -25 -160 -101z" />
<glyph unicode="&#xfa;" horiz-adv-x="868" d="M-39 322l16 -17l76 6l37 -41l29 -235l67 -70h60l145 76l76 106l45 -20l4 -68l82 -57q242 18 301 252l-41 27l-121 -39l-37 53v160l-73 20q-61 -53 -109.5 -116.5t-79.5 -135.5l-104 -30l-53 77l-21 185l-37 51l-73 8q-184 -29 -189 -192zM383 702l39 -24l242 270l182 96 l41 132l-41 16l-94 -25l-134 -118l-233 -273z" />
<glyph unicode="&#xfb;" horiz-adv-x="821" d="M12 176l23 -201l147 -16l113 37l123 104l41 -16l24 -72l154 -16q168 55 194 215l-20 20l-106 -20l-29 20l-8 142l-37 35h-43l-82 -56v-28l-127 -123l-109 -39l-28 63q6 25 10 47.5t4 44.5q0 80 -59 146h-37l-125 -127zM174 739l23 -30h57l104 90v47l52 24l49 -57l47 -121 l57 -16l105 88l20 133q-31 185 -207 199l-123 -47q-184 -104 -184 -301v-9z" />
<glyph unicode="&#xfc;" horiz-adv-x="862" d="M-12 295q0 -39 12 -59l57 14l-24 -57q6 -25 10 -47.5t4 -45.5t-4 -48t-10 -50q6 -20 20.5 -28.5t31.5 -11.5t36.5 -4t36.5 -5q59 18 91 66.5t54 101.5q10 10 23.5 26.5t27 32t27.5 26.5t25 11q14 0 22 -29q14 -29 39 -52t54.5 -40.5t63 -28t64.5 -10.5h15q25 12 45 21.5 t37.5 22t31 29.5t23.5 46q33 18 62.5 56t45.5 79q4 20 4 29q0 10 -6 15t-24 10q-35 -25 -75 -35.5t-81 -10.5q-14 0 -27.5 1.5t-25.5 3.5l-72 139l-74 33q-20 -2 -36.5 -20.5t-32 -44t-31.5 -52.5t-37 -45q-18 -31 -32.5 -49.5t-30 -33.5t-35 -32.5t-47.5 -44.5l20 322 q-23 27 -40 53t-50 26q-10 0 -24 -6l-119 -155q-8 -16 -15.5 -31.5t-17.5 -28.5q-12 -18 -12 -59zM268 885l47 -21l107 84q94 242 301 367l4 51l-49 20l-150 -118l-65 -101q-82 -53 -132 -122.5t-63 -159.5zM438 885l74 -21q139 113 211 271l162 102l39 92l-74 19l-197 -148 q-35 -78 -84 -139.5t-114 -112.5z" />
<glyph unicode="&#xfd;" horiz-adv-x="835" d="M-45 -764l102 -35l213 123q186 150 187 367v30l-25 216l-67 14l-127 -162l-21 -358l-59 -45l-138 -23l-59 -72zM12 121l27 -88l55 -49h176q129 35 229.5 109.5t178.5 189.5l59 39l99 122v37l-50 21l-354 -314h-141l-45 72l-8 143l-76 19l-123 -131zM270 1032l37 -74 l195 -176h121l65 70l14 96l-233 236l-74 20l-125 -100v-72z" />
<glyph unicode="&#xfe;" horiz-adv-x="1499" d="M0 20l41 -32l131 12l88 -49l166 -8l51 -31l117 -18v-283l41 -37h31l106 107q-10 35 -15 71.5t-5 71.5t5 69.5t15 71.5l59 23l7 26q106 2 196 43t162 119q129 41 206 129t97 223l-41 121l-47 47l-86 6l-145 70l-176 6l-107 43l45 482l-57 24l-33 -2l-104 -129l-25 -227 l-84 -101l-4 -135l-178 -172l20 -43l101 25l61 -25q-25 -98 -25 -203q0 -47 4.5 -92t16.5 -92l-41 -29h-43q-72 33 -145.5 47.5t-149.5 14.5q-72 0 -135 -12l-49 30h-72v-162zM813 176l39 342l68 47l262 -49l26 -35l84 -24l23 -43l-23 -66q-193 -201 -461 -203z" />
<glyph unicode="&#xff;" horiz-adv-x="763" d="M53 872l82 -135l187 -49l-89 -123v-76q-2 -10 -2 -20v-18q0 -123 18.5 -244t47.5 -242l88 -35l70 41l57 82l-41 406l-43 69l14 199l281 172l92 131l-43 27q-133 -152 -344 -172l-98 71l-49 117l-64 6l-158 -123zM201 1501l80 -88h24l150 88l16 60l-29 106l-32 31h-52 l-157 -137v-60zM502 1446l26 -139l45 -52h62l131 107v74l-39 245l-53 25l-162 -131z" />
<glyph unicode="&#x152;" horiz-adv-x="1495" d="M0 279h84l29 -29l-19 -156q18 -141 166 -143l123 37l88 69l66 -69h309q41 10 84 15t86 5q92 0 188 -24l60 55l47 8l16 84l-33 21l-112 -21l-29 21h-219l-49 36l-234 37l-14 43l31 23l22 65q100 94 223 95q66 0 146 -29l106 22l78 -22l72 33l53 114l-25 47 q-117 45 -247 46q-45 0 -88 -6.5t-88 -16.5l-68 20l-21 43l54 31l192 39q29 -4 58.5 -6t58.5 -2q223 0 401 121l23 90l-23 33q-23 2 -44 3t-44 1q-78 0 -153.5 -12.5t-149.5 -41.5l-96 17q-96 -55 -197 -55q-31 0 -63.5 5t-65.5 17l-59 88l-117 27l-125 -60l-67 11 q-147 -129 -249 -289t-161 -352zM299 188v168l70 340l53 37l55 105l109 22l80 -39l30 -162q-35 -59 -53 -119.5t-18 -123.5v-13l-62 -79q-20 -156 -196 -172z" />
<glyph unicode="&#x153;" horiz-adv-x="1048" d="M-2 215q0 -12 2 -27l25 -67l69 -58l295 39q94 -115 225 -114h25l279 96l40 61l74 17l17 49l-17 22h-145q-53 -33 -109 -32q-57 0 -110 32v27l80 35l108 127l53 18l76 154l-10 90l-33 39l-160 16l-114 -43l-131 -135l-35 8l-25 90q-59 27 -112 27q-90 0 -177 -68 q-190 -152 -190 -374v-29zM176 309q0 -41 7 -53t24 -12q10 0 22.5 2t28.5 2l66 -2q31 0 52 12t21 53q23 37 30 66t7 51q0 41 -23.5 57.5t-52.5 16.5q-45 0 -65.5 -24.5t-30.5 -47.5zM659 512l50 33l67 -17l6 -47l-43 -37h-49z" />
<glyph unicode="&#x178;" horiz-adv-x="1003" d="M0 856l63 -250l109 -69h123q260 55 469 235l45 59l61 25l64 86l51 27l19 104l-46 19l-235 -228q-72 -66 -141.5 -100.5t-143.5 -34.5q-86 0 -176 47l-67 125l-7 131l-41 41h-63l-80 -88zM156 152q0 -18 8 -57.5t19.5 -82.5t23.5 -83l18 -60l-37 -164l37 -39h70 q45 31 71.5 87.5t41 121t18.5 130t4 118.5q0 123 -61 283l-21 40h-53q-139 -131 -139 -294zM383 1190l57 -35l115 113l51 123l119 125l25 110l-54 23l-151 -133l-115 -224l-22 -6zM408 942l49 -16q131 96 186 243q102 82 178 176.5t123 206.5l-57 21l-129 -109 q-72 -143 -207 -243l-62 -125l-59 -47z" />
<glyph unicode="&#x2c6;" horiz-adv-x="604" d="M47 791l41 -9l195 189l77 -146l99 -53l90 129v103l-115 266l-53 24l-309 -411z" />
<glyph unicode="&#x2dc;" horiz-adv-x="925" d="M51 721l64 -33l196 109l109 -135l72 -11q104 61 195 140t165 180l20 61l-63 17l-180 -166h-41l-113 129l-233 -25l-185 -178z" />
<glyph unicode="&#x2000;" horiz-adv-x="1042" />
<glyph unicode="&#x2001;" horiz-adv-x="2085" />
<glyph unicode="&#x2002;" horiz-adv-x="1042" />
<glyph unicode="&#x2003;" horiz-adv-x="2085" />
<glyph unicode="&#x2004;" horiz-adv-x="695" />
<glyph unicode="&#x2005;" horiz-adv-x="521" />
<glyph unicode="&#x2006;" horiz-adv-x="347" />
<glyph unicode="&#x2007;" horiz-adv-x="347" />
<glyph unicode="&#x2008;" horiz-adv-x="260" />
<glyph unicode="&#x2009;" horiz-adv-x="417" />
<glyph unicode="&#x200a;" horiz-adv-x="115" />
<glyph unicode="&#x2010;" horiz-adv-x="1085" d="M90 299l31 -31h147l654 99l86 92v71l-37 25l-137 -27l-39 27h-140l-407 -27l-158 -161v-68z" />
<glyph unicode="&#x2011;" horiz-adv-x="1085" d="M90 299l31 -31h147l654 99l86 92v71l-37 25l-137 -27l-39 27h-140l-407 -27l-158 -161v-68z" />
<glyph unicode="&#x2012;" horiz-adv-x="1085" d="M90 299l31 -31h147l654 99l86 92v71l-37 25l-137 -27l-39 27h-140l-407 -27l-158 -161v-68z" />
<glyph unicode="&#x2013;" horiz-adv-x="913" d="M47 389l41 -37l354 -33l207 17l56 53l106 37l37 37v43l-111 39l-145 -15q-131 47 -262 48q-58 -1 -105 -9q-176 -31 -178 -180z" />
<glyph unicode="&#x2014;" horiz-adv-x="1263" d="M59 578l25 -33h29q51 0 98 -10.5t94 -28.5l244 12l61 -18l101 26q51 -20 100 -29.5t94 -9.5q170 0 291 144v53l-29 27l-163 -19q-53 12 -104.5 17.5t-102.5 5.5q-119 0 -242 -31l-72 27l-295 14l-125 -100z" />
<glyph unicode="&#x2018;" horiz-adv-x="538" d="M51 967q0 -35 4 -69t11 -71l24 -88q104 -115 258 -133l127 86l17 84l-213 162q-29 102 -29 195q0 92 29 194l-41 16q-186 -150 -187 -376z" />
<glyph unicode="&#x2019;" horiz-adv-x="415" d="M45 580l29 -29l53 29l74 122q23 92 57.5 173t93.5 153l25 152l-55 84l-80 6l-154 -150l39 -145l-82 -217v-178z" />
<glyph unicode="&#x201a;" horiz-adv-x="356" d="M8 -393l39 -33q158 70 197 238l59 57l4 135l-39 98l-98 19l-74 -101l13 -194z" />
<glyph unicode="&#x201c;" horiz-adv-x="638" d="M29 655l32 -16l70 16q199 195 199 455v29l-49 69l-58 19l-73 -39l-48 -68l29 -188zM256 598l51 -18l88 75q197 233 197 521v38l-35 68l-80 23l-55 -37l-57 -92v-82l32 -25q6 -35 6 -65q0 -178 -129 -308z" />
<glyph unicode="&#x201d;" horiz-adv-x="684" d="M33 721l63 -19l99 95l63 116q98 63 98 191v16l-61 150l-70 24l-151 -129v-69l71 -103l-39 -141l-69 -88zM344 702l53 -18l97 88l45 74l28 6l80 156v69l-53 119l-33 41h-53l-102 -98v-90l45 -78l6 -101z" />
<glyph unicode="&#x201e;" horiz-adv-x="749" d="M0 -489l63 -17l289 344l17 123l-2 49l-60 162q-194 0 -223 -188l63 -78q2 -14 3 -27v-26q0 -170 -146 -283zM219 -444l6 -52h58q162 139 272 316v33l80 90l31 131l-78 127l-60 6l-112 -154v-127l-15 -106z" />
<glyph unicode="&#x2022;" horiz-adv-x="532" d="M47 408q74 -145 207 -146h25q201 70 200 275v20t-2 21l-47 57h-84l-49 90l-61 8l-134 -98z" />
<glyph unicode="&#x2026;" horiz-adv-x="1388" d="M66 94l24 -106l96 -78h70l88 78l4 96l-76 149l-28 27h-64l-108 -102zM467 63q86 -186 250 -176l114 80l17 82q-57 171 -219 187l-133 -99zM1006 25l120 -170h111l74 75l18 84l-92 197l-94 25l-119 -115z" />
<glyph unicode="&#x202f;" horiz-adv-x="417" />
<glyph unicode="&#x2039;" horiz-adv-x="591" d="M47 137l55 -98l66 -25l125 -137l53 -22l131 57l41 113l-115 137l-137 57l-24 43q141 111 212.5 249t82.5 310l-78 25l-92 -96l-60 -269l-84 -67q-29 -68 -70.5 -123t-101.5 -96z" />
<glyph unicode="&#x203a;" horiz-adv-x="643" d="M0 -49l49 -21l96 74q111 219 351 291l92 119v75l-86 62v27q-133 98 -219 243h-58l-104 -98l-8 -88q45 -176 198 -262v-31q-90 -72 -166.5 -155t-140.5 -183z" />
<glyph unicode="&#x205f;" horiz-adv-x="521" />
<glyph unicode="&#x20ac;" horiz-adv-x="909" d="M12 494h88q4 -111 31 -198t70 -153q109 -164 307 -163q68 0 121 16t98 51q37 29 74 73t80 105l-29 19q-35 -53 -67.5 -88t-59.5 -54q-39 -25 -84 -38t-100 -13q-141 0 -213 160q-57 117 -66 283h453l22 69h-475l6 72h486l22 63h-506q49 432 295 432q236 0 258 -278h33 v256q-72 39 -143.5 59.5t-147.5 20.5q-190 0 -319 -154q-113 -131 -144 -336h-69l-21 -63h86q-4 -16 -4 -37v-35h-61z" />
<glyph unicode="&#x2122;" horiz-adv-x="1327" d="M0 985l63 -27l125 46l31 -19l-12 -334l39 -37h45l117 144l6 235l30 35l134 21l98 116l-33 25l-397 31q-117 -12 -176.5 -73t-69.5 -163zM602 668l57 -33h54l88 90l-10 74l18 47l223 55l33 -37v-88l65 -141l89 -10l92 65l16 92l-57 127v256l-17 25h-57l-92 -74l-113 -24 l-57 34l-25 95l-57 6l-193 -207z" />
<glyph unicode="&#xe000;" horiz-adv-x="675" d="M0 0v676h676v-676h-676z" />
</font>
</defs>
</svg>
